<svg viewBox="-16 -32 880 192" width="880" height="192" xmlns="http://www.w3.org/2000/svg"><desc>Generated with https://github.com/Platane/snk</desc><style>:root{--cb:#1b1f230a;--cs:invisible;--ce:#ebedf0;--c0:#ebedf0;--c1:#b0e0e6;--c2:#87cefa;--c3:#00bfff;--c4:#1e90ff}.c{shape-rendering:geometricPrecision;fill:var(--ce);stroke-width:1px;stroke:var(--cb);animation:none 33500ms linear infinite;width:12px;height:12px}@keyframes c0{6.86%{fill:var(--c1)}6.88%,100%{fill:var(--ce)}}.c.c0{fill:var(--c1);animation-name:c0}@keyframes c1{96.71%{fill:var(--c4)}96.73%,100%{fill:var(--ce)}}.c.c1{fill:var(--c4);animation-name:c1}@keyframes c2{96.41%{fill:var(--c4)}96.43%,100%{fill:var(--ce)}}.c.c2{fill:var(--c4);animation-name:c2}@keyframes c3{5.96%{fill:var(--c1)}5.98%,100%{fill:var(--ce)}}.c.c3{fill:var(--c1);animation-name:c3}@keyframes c4{98.5%{fill:var(--c4)}98.52%,100%{fill:var(--ce)}}.c.c4{fill:var(--c4);animation-name:c4}@keyframes c5{1.78%{fill:var(--c1)}1.8%,100%{fill:var(--ce)}}.c.c5{fill:var(--c1);animation-name:c5}@keyframes c6{54.02%{fill:var(--c2)}54.04%,100%{fill:var(--ce)}}.c.c6{fill:var(--c2);animation-name:c6}@keyframes c7{53.42%{fill:var(--c2)}53.44%,100%{fill:var(--ce)}}.c.c7{fill:var(--c2);animation-name:c7}@keyframes c8{3.57%{fill:var(--c1)}3.59%,100%{fill:var(--ce)}}.c.c8{fill:var(--c1);animation-name:c8}@keyframes c9{94.92%{fill:var(--c4)}94.94%,100%{fill:var(--ce)}}.c.c9{fill:var(--c4);animation-name:c9}@keyframes ca{51.93%{fill:var(--c2)}51.95%,100%{fill:var(--ce)}}.c.ca{fill:var(--c2);animation-name:ca}@keyframes cb{94.32%{fill:var(--c4)}94.34%,100%{fill:var(--ce)}}.c.cb{fill:var(--c4);animation-name:cb}@keyframes cc{61.18%{fill:var(--c3)}61.2%,100%{fill:var(--ce)}}.c.cc{fill:var(--c3);animation-name:cc}@keyframes cd{55.51%{fill:var(--c2)}55.53%,100%{fill:var(--ce)}}.c.cd{fill:var(--c2);animation-name:cd}@keyframes ce{94.02%{fill:var(--c4)}94.04%,100%{fill:var(--ce)}}.c.ce{fill:var(--c4);animation-name:ce}@keyframes cf{59.39%{fill:var(--c3)}59.41%,100%{fill:var(--ce)}}.c.cf{fill:var(--c3);animation-name:cf}@keyframes cg{92.83%{fill:var(--c4)}92.85%,100%{fill:var(--ce)}}.c.cg{fill:var(--c4);animation-name:cg}@keyframes ch{57.3%{fill:var(--c2)}57.32%,100%{fill:var(--ce)}}.c.ch{fill:var(--c2);animation-name:ch}@keyframes ci{11.33%{fill:var(--c1)}11.35%,100%{fill:var(--ce)}}.c.ci{fill:var(--c1);animation-name:ci}@keyframes cj{65.06%{fill:var(--c3)}65.08%,100%{fill:var(--ce)}}.c.cj{fill:var(--c3);animation-name:cj}@keyframes ck{43.57%{fill:var(--c2)}43.59%,100%{fill:var(--ce)}}.c.ck{fill:var(--c2);animation-name:ck}@keyframes cl{44.17%{fill:var(--c2)}44.19%,100%{fill:var(--ce)}}.c.cl{fill:var(--c2);animation-name:cl}@keyframes cm{87.45%{fill:var(--c4)}87.47%,100%{fill:var(--ce)}}.c.cm{fill:var(--c4);animation-name:cm}@keyframes cn{44.77%{fill:var(--c2)}44.79%,100%{fill:var(--ce)}}.c.cn{fill:var(--c2);animation-name:cn}@keyframes co{45.06%{fill:var(--c2)}45.08%,100%{fill:var(--ce)}}.c.co{fill:var(--c2);animation-name:co}@keyframes cp{47.75%{fill:var(--c2)}47.77%,100%{fill:var(--ce)}}.c.cp{fill:var(--c2);animation-name:cp}@keyframes cq{89.24%{fill:var(--c4)}89.26%,100%{fill:var(--ce)}}.c.cq{fill:var(--c4);animation-name:cq}@keyframes cr{66.86%{fill:var(--c3)}66.88%,100%{fill:var(--ce)}}.c.cr{fill:var(--c3);animation-name:cr}@keyframes cs{42.68%{fill:var(--c2)}42.7%,100%{fill:var(--ce)}}.c.cs{fill:var(--c2);animation-name:cs}@keyframes ct{38.8%{fill:var(--c2)}38.82%,100%{fill:var(--ce)}}.c.ct{fill:var(--c2);animation-name:ct}@keyframes cu{37.6%{fill:var(--c2)}37.62%,100%{fill:var(--ce)}}.c.cu{fill:var(--c2);animation-name:cu}@keyframes cv{71.93%{fill:var(--c3)}71.95%,100%{fill:var(--ce)}}.c.cv{fill:var(--c3);animation-name:cv}@keyframes cw{37%{fill:var(--c2)}37.02%,100%{fill:var(--ce)}}.c.cw{fill:var(--c2);animation-name:cw}@keyframes cx{36.41%{fill:var(--c2)}36.43%,100%{fill:var(--ce)}}.c.cx{fill:var(--c2);animation-name:cx}@keyframes cy{20.89%{fill:var(--c1)}20.91%,100%{fill:var(--ce)}}.c.cy{fill:var(--c1);animation-name:cy}@keyframes cz{20.59%{fill:var(--c1)}20.61%,100%{fill:var(--ce)}}.c.cz{fill:var(--c1);animation-name:cz}@keyframes c10{20.29%{fill:var(--c1)}20.31%,100%{fill:var(--ce)}}.c.c10{fill:var(--c1);animation-name:c10}@keyframes c11{80.89%{fill:var(--c4)}80.91%,100%{fill:var(--ce)}}.c.c11{fill:var(--c4);animation-name:c11}@keyframes c12{22.08%{fill:var(--c1)}22.1%,100%{fill:var(--ce)}}.c.c12{fill:var(--c1);animation-name:c12}@keyframes c13{34.92%{fill:var(--c2)}34.94%,100%{fill:var(--ce)}}.c.c13{fill:var(--c2);animation-name:c13}@keyframes c14{23.27%{fill:var(--c1)}23.29%,100%{fill:var(--ce)}}.c.c14{fill:var(--c1);animation-name:c14}@keyframes c15{78.8%{fill:var(--c4)}78.82%,100%{fill:var(--ce)}}.c.c15{fill:var(--c4);animation-name:c15}@keyframes c16{78.5%{fill:var(--c4)}78.52%,100%{fill:var(--ce)}}.c.c16{fill:var(--c4);animation-name:c16}@keyframes c17{34.62%{fill:var(--c2)}34.64%,100%{fill:var(--ce)}}.c.c17{fill:var(--c2);animation-name:c17}@keyframes c18{34.32%{fill:var(--c2)}34.34%,100%{fill:var(--ce)}}.c.c18{fill:var(--c2);animation-name:c18}@keyframes c19{28.95%{fill:var(--c2)}28.97%,100%{fill:var(--ce)}}.c.c19{fill:var(--c2);animation-name:c19}@keyframes c1a{29.24%{fill:var(--c2)}29.26%,100%{fill:var(--ce)}}.c.c1a{fill:var(--c2);animation-name:c1a}@keyframes c1b{26.56%{fill:var(--c1)}26.58%,100%{fill:var(--ce)}}.c.c1b{fill:var(--c1);animation-name:c1b}@keyframes c1c{27.75%{fill:var(--c2)}27.77%,100%{fill:var(--ce)}}.c.c1c{fill:var(--c2);animation-name:c1c}@keyframes c1d{28.65%{fill:var(--c2)}28.67%,100%{fill:var(--ce)}}.c.c1d{fill:var(--c2);animation-name:c1d}@keyframes c1e{76.11%{fill:var(--c3)}76.13%,100%{fill:var(--ce)}}.c.c1e{fill:var(--c3);animation-name:c1e}@keyframes c1f{31.03%{fill:var(--c2)}31.05%,100%{fill:var(--ce)}}.c.c1f{fill:var(--c2);animation-name:c1f}.u{transform-origin:0 0;transform:scale(0,1);animation:none linear 33500ms infinite}@keyframes u0{1.78%{transform:scale(0.000,1)}1.8%,3.57%{transform:scale(0.091,1)}3.59%,5.96%{transform:scale(0.182,1)}5.98%,6.86%{transform:scale(0.273,1)}6.88%,11.33%{transform:scale(0.364,1)}11.35%,20.29%{transform:scale(0.455,1)}20.31%,20.59%{transform:scale(0.545,1)}20.61%,20.89%{transform:scale(0.636,1)}20.91%,22.08%{transform:scale(0.727,1)}22.1%,23.27%{transform:scale(0.818,1)}23.29%,26.56%{transform:scale(0.909,1)}26.58%,100%{transform:scale(1.000,1)}}.u.u0{fill:var(--c1);animation-name:u0;transform-origin:0.0px 0}@keyframes u1{27.75%{transform:scale(0.000,1)}27.77%,28.65%{transform:scale(0.043,1)}28.67%,28.95%{transform:scale(0.087,1)}28.97%,29.24%{transform:scale(0.130,1)}29.26%,31.03%{transform:scale(0.174,1)}31.05%,34.32%{transform:scale(0.217,1)}34.34%,34.62%{transform:scale(0.261,1)}34.64%,34.92%{transform:scale(0.304,1)}34.94%,36.41%{transform:scale(0.348,1)}36.43%,37%{transform:scale(0.391,1)}37.02%,37.6%{transform:scale(0.435,1)}37.62%,38.8%{transform:scale(0.478,1)}38.82%,42.68%{transform:scale(0.522,1)}42.7%,43.57%{transform:scale(0.565,1)}43.59%,44.17%{transform:scale(0.609,1)}44.19%,44.77%{transform:scale(0.652,1)}44.79%,45.06%{transform:scale(0.696,1)}45.08%,47.75%{transform:scale(0.739,1)}47.77%,51.93%{transform:scale(0.783,1)}51.95%,53.42%{transform:scale(0.826,1)}53.44%,54.02%{transform:scale(0.870,1)}54.04%,55.51%{transform:scale(0.913,1)}55.53%,57.3%{transform:scale(0.957,1)}57.32%,100%{transform:scale(1.000,1)}}.u.u1{fill:var(--c2);animation-name:u1;transform-origin:179.4px 0}@keyframes u2{59.39%{transform:scale(0.000,1)}59.41%,61.18%{transform:scale(0.167,1)}61.2%,65.06%{transform:scale(0.333,1)}65.08%,66.86%{transform:scale(0.500,1)}66.88%,71.93%{transform:scale(0.667,1)}71.95%,76.11%{transform:scale(0.833,1)}76.13%,100%{transform:scale(1.000,1)}}.u.u2{fill:var(--c3);animation-name:u2;transform-origin:554.5px 0}@keyframes u3{78.5%{transform:scale(0.000,1)}78.52%,78.8%{transform:scale(0.083,1)}78.82%,80.89%{transform:scale(0.167,1)}80.91%,87.45%{transform:scale(0.250,1)}87.47%,89.24%{transform:scale(0.333,1)}89.26%,92.83%{transform:scale(0.417,1)}92.85%,94.02%{transform:scale(0.500,1)}94.04%,94.32%{transform:scale(0.583,1)}94.34%,94.92%{transform:scale(0.667,1)}94.94%,96.41%{transform:scale(0.750,1)}96.43%,96.71%{transform:scale(0.833,1)}96.73%,98.5%{transform:scale(0.917,1)}98.52%,100%{transform:scale(1.000,1)}}.u.u3{fill:var(--c4);animation-name:u3;transform-origin:652.3px 0}.s{shape-rendering:geometricPrecision;fill:var(--cs);animation:none linear 33500ms infinite}@keyframes s0{0%,99.7%{transform:translate(0px,-16px)}0.3%{transform:translate(0px,0px)}0.9%{transform:translate(32px,0px)}1.19%,2.39%{transform:translate(32px,16px)}1.49%{transform:translate(48px,16px)}1.79%,53.73%{transform:translate(48px,32px)}2.09%{transform:translate(32px,32px)}3.58%{transform:translate(96px,16px)}3.88%,94.63%{transform:translate(96px,32px)}4.18%{transform:translate(80px,32px)}4.48%,54.63%{transform:translate(80px,48px)}4.78%{transform:translate(64px,48px)}5.07%{transform:translate(64px,64px)}5.37%{transform:translate(48px,64px)}5.67%{transform:translate(48px,80px)}6.57%{transform:translate(0px,80px)}6.87%{transform:translate(0px,96px)}10.75%{transform:translate(208px,96px)}11.34%{transform:translate(208px,64px)}12.84%{transform:translate(288px,64px)}13.13%{transform:translate(288px,48px)}13.73%,42.99%{transform:translate(320px,48px)}14.03%,44.48%{transform:translate(320px,64px)}18.51%{transform:translate(560px,64px)}18.81%{transform:translate(560px,48px)}20%{transform:translate(624px,48px)}20.9%{transform:translate(624px,0px)}21.79%{transform:translate(672px,0px)}22.09%{transform:translate(672px,16px)}22.39%{transform:translate(656px,16px)}22.99%{transform:translate(656px,48px)}23.28%{transform:translate(672px,48px)}23.58%{transform:translate(672px,64px)}25.07%{transform:translate(752px,64px)}25.97%{transform:translate(752px,16px)}26.27%,27.46%{transform:translate(768px,16px)}26.57%{transform:translate(768px,0px)}26.87%{transform:translate(784px,0px)}27.16%,76.72%{transform:translate(784px,16px)}28.66%{transform:translate(768px,80px)}28.96%{transform:translate(752px,80px)}29.25%{transform:translate(752px,96px)}30.75%{transform:translate(832px,96px)}31.34%{transform:translate(832px,64px)}32.54%{transform:translate(768px,64px)}32.84%{transform:translate(768px,48px)}34.33%{transform:translate(688px,48px)}34.63%{transform:translate(688px,32px)}36.42%{transform:translate(592px,32px)}37.01%{transform:translate(592px,0px)}37.91%{transform:translate(544px,0px)}38.81%{transform:translate(544px,48px)}43.28%,66.57%{transform:translate(320px,32px)}43.58%{transform:translate(304px,32px)}44.18%,87.76%{transform:translate(304px,64px)}45.07%{transform:translate(320px,96px)}45.67%{transform:translate(352px,96px)}47.46%{transform:translate(352px,0px)}52.84%{transform:translate(64px,0px)}53.43%{transform:translate(64px,32px)}54.03%,97.61%{transform:translate(48px,48px)}54.93%{transform:translate(80px,64px)}57.01%{transform:translate(192px,64px)}57.31%{transform:translate(192px,80px)}57.61%{transform:translate(208px,80px)}58.81%{transform:translate(208px,16px)}60%{transform:translate(144px,16px)}60.6%{transform:translate(144px,48px)}61.19%{transform:translate(112px,48px)}61.49%{transform:translate(112px,64px)}64.18%{transform:translate(256px,64px)}65.07%{transform:translate(256px,16px)}66.27%{transform:translate(320px,16px)}71.34%{transform:translate(576px,32px)}71.94%{transform:translate(576px,64px)}75.82%{transform:translate(784px,64px)}78.51%{transform:translate(688px,16px)}78.81%{transform:translate(688px,0px)}79.4%{transform:translate(656px,0px)}80.9%{transform:translate(656px,80px)}87.46%{transform:translate(304px,80px)}88.36%{transform:translate(336px,64px)}89.25%{transform:translate(336px,16px)}92.24%{transform:translate(176px,16px)}92.84%{transform:translate(176px,48px)}93.13%{transform:translate(160px,48px)}93.43%{transform:translate(160px,32px)}94.93%{transform:translate(96px,48px)}96.12%{transform:translate(32px,48px)}96.42%{transform:translate(32px,64px)}96.72%{transform:translate(16px,64px)}97.01%{transform:translate(16px,48px)}98.81%{transform:translate(48px,-16px)}}.s.s0{transform:translate(0px,-16px);animation-name:s0}@keyframes s1{0%,99.7%{transform:translate(16px,-16px)}0.3%{transform:translate(0px,-16px)}0.6%{transform:translate(0px,0px)}1.19%{transform:translate(32px,0px)}1.49%,2.69%{transform:translate(32px,16px)}1.79%{transform:translate(48px,16px)}2.09%,54.03%{transform:translate(48px,32px)}2.39%{transform:translate(32px,32px)}3.88%{transform:translate(96px,16px)}4.18%,94.93%{transform:translate(96px,32px)}4.48%{transform:translate(80px,32px)}4.78%,54.93%{transform:translate(80px,48px)}5.07%{transform:translate(64px,48px)}5.37%{transform:translate(64px,64px)}5.67%{transform:translate(48px,64px)}5.97%{transform:translate(48px,80px)}6.87%{transform:translate(0px,80px)}7.16%{transform:translate(0px,96px)}11.04%{transform:translate(208px,96px)}11.64%{transform:translate(208px,64px)}13.13%{transform:translate(288px,64px)}13.43%{transform:translate(288px,48px)}14.03%,43.28%{transform:translate(320px,48px)}14.33%,44.78%{transform:translate(320px,64px)}18.81%{transform:translate(560px,64px)}19.1%{transform:translate(560px,48px)}20.3%{transform:translate(624px,48px)}21.19%{transform:translate(624px,0px)}22.09%{transform:translate(672px,0px)}22.39%{transform:translate(672px,16px)}22.69%{transform:translate(656px,16px)}23.28%{transform:translate(656px,48px)}23.58%{transform:translate(672px,48px)}23.88%{transform:translate(672px,64px)}25.37%{transform:translate(752px,64px)}26.27%{transform:translate(752px,16px)}26.57%,27.76%{transform:translate(768px,16px)}26.87%{transform:translate(768px,0px)}27.16%{transform:translate(784px,0px)}27.46%,77.01%{transform:translate(784px,16px)}28.96%{transform:translate(768px,80px)}29.25%{transform:translate(752px,80px)}29.55%{transform:translate(752px,96px)}31.04%{transform:translate(832px,96px)}31.64%{transform:translate(832px,64px)}32.84%{transform:translate(768px,64px)}33.13%{transform:translate(768px,48px)}34.63%{transform:translate(688px,48px)}34.93%{transform:translate(688px,32px)}36.72%{transform:translate(592px,32px)}37.31%{transform:translate(592px,0px)}38.21%{transform:translate(544px,0px)}39.1%{transform:translate(544px,48px)}43.58%,66.87%{transform:translate(320px,32px)}43.88%{transform:translate(304px,32px)}44.48%,88.06%{transform:translate(304px,64px)}45.37%{transform:translate(320px,96px)}45.97%{transform:translate(352px,96px)}47.76%{transform:translate(352px,0px)}53.13%{transform:translate(64px,0px)}53.73%{transform:translate(64px,32px)}54.33%,97.91%{transform:translate(48px,48px)}55.22%{transform:translate(80px,64px)}57.31%{transform:translate(192px,64px)}57.61%{transform:translate(192px,80px)}57.91%{transform:translate(208px,80px)}59.1%{transform:translate(208px,16px)}60.3%{transform:translate(144px,16px)}60.9%{transform:translate(144px,48px)}61.49%{transform:translate(112px,48px)}61.79%{transform:translate(112px,64px)}64.48%{transform:translate(256px,64px)}65.37%{transform:translate(256px,16px)}66.57%{transform:translate(320px,16px)}71.64%{transform:translate(576px,32px)}72.24%{transform:translate(576px,64px)}76.12%{transform:translate(784px,64px)}78.81%{transform:translate(688px,16px)}79.1%{transform:translate(688px,0px)}79.7%{transform:translate(656px,0px)}81.19%{transform:translate(656px,80px)}87.76%{transform:translate(304px,80px)}88.66%{transform:translate(336px,64px)}89.55%{transform:translate(336px,16px)}92.54%{transform:translate(176px,16px)}93.13%{transform:translate(176px,48px)}93.43%{transform:translate(160px,48px)}93.73%{transform:translate(160px,32px)}95.22%{transform:translate(96px,48px)}96.42%{transform:translate(32px,48px)}96.72%{transform:translate(32px,64px)}97.01%{transform:translate(16px,64px)}97.31%{transform:translate(16px,48px)}99.1%{transform:translate(48px,-16px)}}.s.s1{transform:translate(16px,-16px);animation-name:s1}@keyframes s2{0%,99.7%{transform:translate(32px,-16px)}0.6%{transform:translate(0px,-16px)}0.9%{transform:translate(0px,0px)}1.49%{transform:translate(32px,0px)}1.79%,2.99%{transform:translate(32px,16px)}2.09%{transform:translate(48px,16px)}2.39%,54.33%{transform:translate(48px,32px)}2.69%{transform:translate(32px,32px)}4.18%{transform:translate(96px,16px)}4.48%,95.22%{transform:translate(96px,32px)}4.78%{transform:translate(80px,32px)}5.07%,55.22%{transform:translate(80px,48px)}5.37%{transform:translate(64px,48px)}5.67%{transform:translate(64px,64px)}5.97%{transform:translate(48px,64px)}6.27%{transform:translate(48px,80px)}7.16%{transform:translate(0px,80px)}7.46%{transform:translate(0px,96px)}11.34%{transform:translate(208px,96px)}11.94%{transform:translate(208px,64px)}13.43%{transform:translate(288px,64px)}13.73%{transform:translate(288px,48px)}14.33%,43.58%{transform:translate(320px,48px)}14.63%,45.07%{transform:translate(320px,64px)}19.1%{transform:translate(560px,64px)}19.4%{transform:translate(560px,48px)}20.6%{transform:translate(624px,48px)}21.49%{transform:translate(624px,0px)}22.39%{transform:translate(672px,0px)}22.69%{transform:translate(672px,16px)}22.99%{transform:translate(656px,16px)}23.58%{transform:translate(656px,48px)}23.88%{transform:translate(672px,48px)}24.18%{transform:translate(672px,64px)}25.67%{transform:translate(752px,64px)}26.57%{transform:translate(752px,16px)}26.87%,28.06%{transform:translate(768px,16px)}27.16%{transform:translate(768px,0px)}27.46%{transform:translate(784px,0px)}27.76%,77.31%{transform:translate(784px,16px)}29.25%{transform:translate(768px,80px)}29.55%{transform:translate(752px,80px)}29.85%{transform:translate(752px,96px)}31.34%{transform:translate(832px,96px)}31.94%{transform:translate(832px,64px)}33.13%{transform:translate(768px,64px)}33.43%{transform:translate(768px,48px)}34.93%{transform:translate(688px,48px)}35.22%{transform:translate(688px,32px)}37.01%{transform:translate(592px,32px)}37.61%{transform:translate(592px,0px)}38.51%{transform:translate(544px,0px)}39.4%{transform:translate(544px,48px)}43.88%,67.16%{transform:translate(320px,32px)}44.18%{transform:translate(304px,32px)}44.78%,88.36%{transform:translate(304px,64px)}45.67%{transform:translate(320px,96px)}46.27%{transform:translate(352px,96px)}48.06%{transform:translate(352px,0px)}53.43%{transform:translate(64px,0px)}54.03%{transform:translate(64px,32px)}54.63%,98.21%{transform:translate(48px,48px)}55.52%{transform:translate(80px,64px)}57.61%{transform:translate(192px,64px)}57.91%{transform:translate(192px,80px)}58.21%{transform:translate(208px,80px)}59.4%{transform:translate(208px,16px)}60.6%{transform:translate(144px,16px)}61.19%{transform:translate(144px,48px)}61.79%{transform:translate(112px,48px)}62.09%{transform:translate(112px,64px)}64.78%{transform:translate(256px,64px)}65.67%{transform:translate(256px,16px)}66.87%{transform:translate(320px,16px)}71.94%{transform:translate(576px,32px)}72.54%{transform:translate(576px,64px)}76.42%{transform:translate(784px,64px)}79.1%{transform:translate(688px,16px)}79.4%{transform:translate(688px,0px)}80%{transform:translate(656px,0px)}81.49%{transform:translate(656px,80px)}88.06%{transform:translate(304px,80px)}88.96%{transform:translate(336px,64px)}89.85%{transform:translate(336px,16px)}92.84%{transform:translate(176px,16px)}93.43%{transform:translate(176px,48px)}93.73%{transform:translate(160px,48px)}94.03%{transform:translate(160px,32px)}95.52%{transform:translate(96px,48px)}96.72%{transform:translate(32px,48px)}97.01%{transform:translate(32px,64px)}97.31%{transform:translate(16px,64px)}97.61%{transform:translate(16px,48px)}99.4%{transform:translate(48px,-16px)}}.s.s2{transform:translate(32px,-16px);animation-name:s2}@keyframes s3{0%,99.7%{transform:translate(48px,-16px)}0.9%{transform:translate(0px,-16px)}1.19%{transform:translate(0px,0px)}1.79%{transform:translate(32px,0px)}2.09%,3.28%{transform:translate(32px,16px)}2.39%{transform:translate(48px,16px)}2.69%,54.63%{transform:translate(48px,32px)}2.99%{transform:translate(32px,32px)}4.48%{transform:translate(96px,16px)}4.78%,95.52%{transform:translate(96px,32px)}5.07%{transform:translate(80px,32px)}5.37%,55.52%{transform:translate(80px,48px)}5.67%{transform:translate(64px,48px)}5.97%{transform:translate(64px,64px)}6.27%{transform:translate(48px,64px)}6.57%{transform:translate(48px,80px)}7.46%{transform:translate(0px,80px)}7.76%{transform:translate(0px,96px)}11.64%{transform:translate(208px,96px)}12.24%{transform:translate(208px,64px)}13.73%{transform:translate(288px,64px)}14.03%{transform:translate(288px,48px)}14.63%,43.88%{transform:translate(320px,48px)}14.93%,45.37%{transform:translate(320px,64px)}19.4%{transform:translate(560px,64px)}19.7%{transform:translate(560px,48px)}20.9%{transform:translate(624px,48px)}21.79%{transform:translate(624px,0px)}22.69%{transform:translate(672px,0px)}22.99%{transform:translate(672px,16px)}23.28%{transform:translate(656px,16px)}23.88%{transform:translate(656px,48px)}24.18%{transform:translate(672px,48px)}24.48%{transform:translate(672px,64px)}25.97%{transform:translate(752px,64px)}26.87%{transform:translate(752px,16px)}27.16%,28.36%{transform:translate(768px,16px)}27.46%{transform:translate(768px,0px)}27.76%{transform:translate(784px,0px)}28.06%,77.61%{transform:translate(784px,16px)}29.55%{transform:translate(768px,80px)}29.85%{transform:translate(752px,80px)}30.15%{transform:translate(752px,96px)}31.64%{transform:translate(832px,96px)}32.24%{transform:translate(832px,64px)}33.43%{transform:translate(768px,64px)}33.73%{transform:translate(768px,48px)}35.22%{transform:translate(688px,48px)}35.52%{transform:translate(688px,32px)}37.31%{transform:translate(592px,32px)}37.91%{transform:translate(592px,0px)}38.81%{transform:translate(544px,0px)}39.7%{transform:translate(544px,48px)}44.18%,67.46%{transform:translate(320px,32px)}44.48%{transform:translate(304px,32px)}45.07%,88.66%{transform:translate(304px,64px)}45.97%{transform:translate(320px,96px)}46.57%{transform:translate(352px,96px)}48.36%{transform:translate(352px,0px)}53.73%{transform:translate(64px,0px)}54.33%{transform:translate(64px,32px)}54.93%,98.51%{transform:translate(48px,48px)}55.82%{transform:translate(80px,64px)}57.91%{transform:translate(192px,64px)}58.21%{transform:translate(192px,80px)}58.51%{transform:translate(208px,80px)}59.7%{transform:translate(208px,16px)}60.9%{transform:translate(144px,16px)}61.49%{transform:translate(144px,48px)}62.09%{transform:translate(112px,48px)}62.39%{transform:translate(112px,64px)}65.07%{transform:translate(256px,64px)}65.97%{transform:translate(256px,16px)}67.16%{transform:translate(320px,16px)}72.24%{transform:translate(576px,32px)}72.84%{transform:translate(576px,64px)}76.72%{transform:translate(784px,64px)}79.4%{transform:translate(688px,16px)}79.7%{transform:translate(688px,0px)}80.3%{transform:translate(656px,0px)}81.79%{transform:translate(656px,80px)}88.36%{transform:translate(304px,80px)}89.25%{transform:translate(336px,64px)}90.15%{transform:translate(336px,16px)}93.13%{transform:translate(176px,16px)}93.73%{transform:translate(176px,48px)}94.03%{transform:translate(160px,48px)}94.33%{transform:translate(160px,32px)}95.82%{transform:translate(96px,48px)}97.01%{transform:translate(32px,48px)}97.31%{transform:translate(32px,64px)}97.61%{transform:translate(16px,64px)}97.91%{transform:translate(16px,48px)}}.s.s3{transform:translate(48px,-16px);animation-name:s3}</style><rect class="c" x="2" y="2" rx="2" ry="2"/><rect class="c" x="2" y="18" rx="2" ry="2"/><rect class="c" x="2" y="34" rx="2" ry="2"/><rect class="c" x="2" y="50" rx="2" ry="2"/><rect class="c" x="2" y="66" rx="2" ry="2"/><rect class="c" x="2" y="82" rx="2" ry="2"/><rect class="c c0" x="2" y="98" rx="2" ry="2"/><rect class="c" x="18" y="2" rx="2" ry="2"/><rect class="c" x="18" y="18" rx="2" ry="2"/><rect class="c" x="18" y="34" rx="2" ry="2"/><rect class="c" x="18" y="50" rx="2" ry="2"/><rect class="c c1" x="18" y="66" rx="2" ry="2"/><rect class="c" x="18" y="82" rx="2" ry="2"/><rect class="c" x="18" y="98" rx="2" ry="2"/><rect class="c" x="34" y="2" rx="2" ry="2"/><rect class="c" x="34" y="18" rx="2" ry="2"/><rect class="c" x="34" y="34" rx="2" ry="2"/><rect class="c" x="34" y="50" rx="2" ry="2"/><rect class="c c2" x="34" y="66" rx="2" ry="2"/><rect class="c c3" x="34" y="82" rx="2" ry="2"/><rect class="c" x="34" y="98" rx="2" ry="2"/><rect class="c c4" x="50" y="2" rx="2" ry="2"/><rect class="c" x="50" y="18" rx="2" ry="2"/><rect class="c c5" x="50" y="34" rx="2" ry="2"/><rect class="c c6" x="50" y="50" rx="2" ry="2"/><rect class="c" x="50" y="66" rx="2" ry="2"/><rect class="c" x="50" y="82" rx="2" ry="2"/><rect class="c" x="50" y="98" rx="2" ry="2"/><rect class="c" x="66" y="2" rx="2" ry="2"/><rect class="c" x="66" y="18" rx="2" ry="2"/><rect class="c c7" x="66" y="34" rx="2" ry="2"/><rect class="c" x="66" y="50" rx="2" ry="2"/><rect class="c" x="66" y="66" rx="2" ry="2"/><rect class="c" x="66" y="82" rx="2" ry="2"/><rect class="c" x="66" y="98" rx="2" ry="2"/><rect class="c" x="82" y="2" rx="2" ry="2"/><rect class="c" x="82" y="18" rx="2" ry="2"/><rect class="c" x="82" y="34" rx="2" ry="2"/><rect class="c" x="82" y="50" rx="2" ry="2"/><rect class="c" x="82" y="66" rx="2" ry="2"/><rect class="c" x="82" y="82" rx="2" ry="2"/><rect class="c" x="82" y="98" rx="2" ry="2"/><rect class="c" x="98" y="2" rx="2" ry="2"/><rect class="c c8" x="98" y="18" rx="2" ry="2"/><rect class="c" x="98" y="34" rx="2" ry="2"/><rect class="c c9" x="98" y="50" rx="2" ry="2"/><rect class="c" x="98" y="66" rx="2" ry="2"/><rect class="c" x="98" y="82" rx="2" ry="2"/><rect class="c" x="98" y="98" rx="2" ry="2"/><rect class="c ca" x="114" y="2" rx="2" ry="2"/><rect class="c" x="114" y="18" rx="2" ry="2"/><rect class="c cb" x="114" y="34" rx="2" ry="2"/><rect class="c cc" x="114" y="50" rx="2" ry="2"/><rect class="c cd" x="114" y="66" rx="2" ry="2"/><rect class="c" x="114" y="82" rx="2" ry="2"/><rect class="c" x="114" y="98" rx="2" ry="2"/><rect class="c" x="130" y="2" rx="2" ry="2"/><rect class="c" x="130" y="18" rx="2" ry="2"/><rect class="c ce" x="130" y="34" rx="2" ry="2"/><rect class="c" x="130" y="50" rx="2" ry="2"/><rect class="c" x="130" y="66" rx="2" ry="2"/><rect class="c" x="130" y="82" rx="2" ry="2"/><rect class="c" x="130" y="98" rx="2" ry="2"/><rect class="c" x="146" y="2" rx="2" ry="2"/><rect class="c" x="146" y="18" rx="2" ry="2"/><rect class="c" x="146" y="34" rx="2" ry="2"/><rect class="c" x="146" y="50" rx="2" ry="2"/><rect class="c" x="146" y="66" rx="2" ry="2"/><rect class="c" x="146" y="82" rx="2" ry="2"/><rect class="c" x="146" y="98" rx="2" ry="2"/><rect class="c" x="162" y="2" rx="2" ry="2"/><rect class="c" x="162" y="18" rx="2" ry="2"/><rect class="c" x="162" y="34" rx="2" ry="2"/><rect class="c" x="162" y="50" rx="2" ry="2"/><rect class="c" x="162" y="66" rx="2" ry="2"/><rect class="c" x="162" y="82" rx="2" ry="2"/><rect class="c" x="162" y="98" rx="2" ry="2"/><rect class="c" x="178" y="2" rx="2" ry="2"/><rect class="c cf" x="178" y="18" rx="2" ry="2"/><rect class="c" x="178" y="34" rx="2" ry="2"/><rect class="c cg" x="178" y="50" rx="2" ry="2"/><rect class="c" x="178" y="66" rx="2" ry="2"/><rect class="c" x="178" y="82" rx="2" ry="2"/><rect class="c" x="178" y="98" rx="2" ry="2"/><rect class="c" x="194" y="2" rx="2" ry="2"/><rect class="c" x="194" y="18" rx="2" ry="2"/><rect class="c" x="194" y="34" rx="2" ry="2"/><rect class="c" x="194" y="50" rx="2" ry="2"/><rect class="c" x="194" y="66" rx="2" ry="2"/><rect class="c ch" x="194" y="82" rx="2" ry="2"/><rect class="c" x="194" y="98" rx="2" ry="2"/><rect class="c" x="210" y="2" rx="2" ry="2"/><rect class="c" x="210" y="18" rx="2" ry="2"/><rect class="c" x="210" y="34" rx="2" ry="2"/><rect class="c" x="210" y="50" rx="2" ry="2"/><rect class="c ci" x="210" y="66" rx="2" ry="2"/><rect class="c" x="210" y="82" rx="2" ry="2"/><rect class="c" x="210" y="98" rx="2" ry="2"/><rect class="c" x="226" y="2" rx="2" ry="2"/><rect class="c" x="226" y="18" rx="2" ry="2"/><rect class="c" x="226" y="34" rx="2" ry="2"/><rect class="c" x="226" y="50" rx="2" ry="2"/><rect class="c" x="226" y="66" rx="2" ry="2"/><rect class="c" x="226" y="82" rx="2" ry="2"/><rect class="c" x="226" y="98" rx="2" ry="2"/><rect class="c" x="242" y="2" rx="2" ry="2"/><rect class="c" x="242" y="18" rx="2" ry="2"/><rect class="c" x="242" y="34" rx="2" ry="2"/><rect class="c" x="242" y="50" rx="2" ry="2"/><rect class="c" x="242" y="66" rx="2" ry="2"/><rect class="c" x="242" y="82" rx="2" ry="2"/><rect class="c" x="242" y="98" rx="2" ry="2"/><rect class="c" x="258" y="2" rx="2" ry="2"/><rect class="c cj" x="258" y="18" rx="2" ry="2"/><rect class="c" x="258" y="34" rx="2" ry="2"/><rect class="c" x="258" y="50" rx="2" ry="2"/><rect class="c" x="258" y="66" rx="2" ry="2"/><rect class="c" x="258" y="82" rx="2" ry="2"/><rect class="c" x="258" y="98" rx="2" ry="2"/><rect class="c" x="274" y="2" rx="2" ry="2"/><rect class="c" x="274" y="18" rx="2" ry="2"/><rect class="c" x="274" y="34" rx="2" ry="2"/><rect class="c" x="274" y="50" rx="2" ry="2"/><rect class="c" x="274" y="66" rx="2" ry="2"/><rect class="c" x="274" y="82" rx="2" ry="2"/><rect class="c" x="274" y="98" rx="2" ry="2"/><rect class="c" x="290" y="2" rx="2" ry="2"/><rect class="c" x="290" y="18" rx="2" ry="2"/><rect class="c" x="290" y="34" rx="2" ry="2"/><rect class="c" x="290" y="50" rx="2" ry="2"/><rect class="c" x="290" y="66" rx="2" ry="2"/><rect class="c" x="290" y="82" rx="2" ry="2"/><rect class="c" x="290" y="98" rx="2" ry="2"/><rect class="c" x="306" y="2" rx="2" ry="2"/><rect class="c" x="306" y="18" rx="2" ry="2"/><rect class="c ck" x="306" y="34" rx="2" ry="2"/><rect class="c" x="306" y="50" rx="2" ry="2"/><rect class="c cl" x="306" y="66" rx="2" ry="2"/><rect class="c cm" x="306" y="82" rx="2" ry="2"/><rect class="c" x="306" y="98" rx="2" ry="2"/><rect class="c" x="322" y="2" rx="2" ry="2"/><rect class="c" x="322" y="18" rx="2" ry="2"/><rect class="c" x="322" y="34" rx="2" ry="2"/><rect class="c" x="322" y="50" rx="2" ry="2"/><rect class="c" x="322" y="66" rx="2" ry="2"/><rect class="c cn" x="322" y="82" rx="2" ry="2"/><rect class="c co" x="322" y="98" rx="2" ry="2"/><rect class="c cp" x="338" y="2" rx="2" ry="2"/><rect class="c cq" x="338" y="18" rx="2" ry="2"/><rect class="c cr" x="338" y="34" rx="2" ry="2"/><rect class="c cs" x="338" y="50" rx="2" ry="2"/><rect class="c" x="338" y="66" rx="2" ry="2"/><rect class="c" x="338" y="82" rx="2" ry="2"/><rect class="c" x="338" y="98" rx="2" ry="2"/><rect class="c" x="354" y="2" rx="2" ry="2"/><rect class="c" x="354" y="18" rx="2" ry="2"/><rect class="c" x="354" y="34" rx="2" ry="2"/><rect class="c" x="354" y="50" rx="2" ry="2"/><rect class="c" x="354" y="66" rx="2" ry="2"/><rect class="c" x="354" y="82" rx="2" ry="2"/><rect class="c" x="354" y="98" rx="2" ry="2"/><rect class="c" x="370" y="2" rx="2" ry="2"/><rect class="c" x="370" y="18" rx="2" ry="2"/><rect class="c" x="370" y="34" rx="2" ry="2"/><rect class="c" x="370" y="50" rx="2" ry="2"/><rect class="c" x="370" y="66" rx="2" ry="2"/><rect class="c" x="370" y="82" rx="2" ry="2"/><rect class="c" x="370" y="98" rx="2" ry="2"/><rect class="c" x="386" y="2" rx="2" ry="2"/><rect class="c" x="386" y="18" rx="2" ry="2"/><rect class="c" x="386" y="34" rx="2" ry="2"/><rect class="c" x="386" y="50" rx="2" ry="2"/><rect class="c" x="386" y="66" rx="2" ry="2"/><rect class="c" x="386" y="82" rx="2" ry="2"/><rect class="c" x="386" y="98" rx="2" ry="2"/><rect class="c" x="402" y="2" rx="2" ry="2"/><rect class="c" x="402" y="18" rx="2" ry="2"/><rect class="c" x="402" y="34" rx="2" ry="2"/><rect class="c" x="402" y="50" rx="2" ry="2"/><rect class="c" x="402" y="66" rx="2" ry="2"/><rect class="c" x="402" y="82" rx="2" ry="2"/><rect class="c" x="402" y="98" rx="2" ry="2"/><rect class="c" x="418" y="2" rx="2" ry="2"/><rect class="c" x="418" y="18" rx="2" ry="2"/><rect class="c" x="418" y="34" rx="2" ry="2"/><rect class="c" x="418" y="50" rx="2" ry="2"/><rect class="c" x="418" y="66" rx="2" ry="2"/><rect class="c" x="418" y="82" rx="2" ry="2"/><rect class="c" x="418" y="98" rx="2" ry="2"/><rect class="c" x="434" y="2" rx="2" ry="2"/><rect class="c" x="434" y="18" rx="2" ry="2"/><rect class="c" x="434" y="34" rx="2" ry="2"/><rect class="c" x="434" y="50" rx="2" ry="2"/><rect class="c" x="434" y="66" rx="2" ry="2"/><rect class="c" x="434" y="82" rx="2" ry="2"/><rect class="c" x="434" y="98" rx="2" ry="2"/><rect class="c" x="450" y="2" rx="2" ry="2"/><rect class="c" x="450" y="18" rx="2" ry="2"/><rect class="c" x="450" y="34" rx="2" ry="2"/><rect class="c" x="450" y="50" rx="2" ry="2"/><rect class="c" x="450" y="66" rx="2" ry="2"/><rect class="c" x="450" y="82" rx="2" ry="2"/><rect class="c" x="450" y="98" rx="2" ry="2"/><rect class="c" x="466" y="2" rx="2" ry="2"/><rect class="c" x="466" y="18" rx="2" ry="2"/><rect class="c" x="466" y="34" rx="2" ry="2"/><rect class="c" x="466" y="50" rx="2" ry="2"/><rect class="c" x="466" y="66" rx="2" ry="2"/><rect class="c" x="466" y="82" rx="2" ry="2"/><rect class="c" x="466" y="98" rx="2" ry="2"/><rect class="c" x="482" y="2" rx="2" ry="2"/><rect class="c" x="482" y="18" rx="2" ry="2"/><rect class="c" x="482" y="34" rx="2" ry="2"/><rect class="c" x="482" y="50" rx="2" ry="2"/><rect class="c" x="482" y="66" rx="2" ry="2"/><rect class="c" x="482" y="82" rx="2" ry="2"/><rect class="c" x="482" y="98" rx="2" ry="2"/><rect class="c" x="498" y="2" rx="2" ry="2"/><rect class="c" x="498" y="18" rx="2" ry="2"/><rect class="c" x="498" y="34" rx="2" ry="2"/><rect class="c" x="498" y="50" rx="2" ry="2"/><rect class="c" x="498" y="66" rx="2" ry="2"/><rect class="c" x="498" y="82" rx="2" ry="2"/><rect class="c" x="498" y="98" rx="2" ry="2"/><rect class="c" x="514" y="2" rx="2" ry="2"/><rect class="c" x="514" y="18" rx="2" ry="2"/><rect class="c" x="514" y="34" rx="2" ry="2"/><rect class="c" x="514" y="50" rx="2" ry="2"/><rect class="c" x="514" y="66" rx="2" ry="2"/><rect class="c" x="514" y="82" rx="2" ry="2"/><rect class="c" x="514" y="98" rx="2" ry="2"/><rect class="c" x="530" y="2" rx="2" ry="2"/><rect class="c" x="530" y="18" rx="2" ry="2"/><rect class="c" x="530" y="34" rx="2" ry="2"/><rect class="c" x="530" y="50" rx="2" ry="2"/><rect class="c" x="530" y="66" rx="2" ry="2"/><rect class="c" x="530" y="82" rx="2" ry="2"/><rect class="c" x="530" y="98" rx="2" ry="2"/><rect class="c" x="546" y="2" rx="2" ry="2"/><rect class="c" x="546" y="18" rx="2" ry="2"/><rect class="c" x="546" y="34" rx="2" ry="2"/><rect class="c ct" x="546" y="50" rx="2" ry="2"/><rect class="c" x="546" y="66" rx="2" ry="2"/><rect class="c" x="546" y="82" rx="2" ry="2"/><rect class="c" x="546" y="98" rx="2" ry="2"/><rect class="c cu" x="562" y="2" rx="2" ry="2"/><rect class="c" x="562" y="18" rx="2" ry="2"/><rect class="c" x="562" y="34" rx="2" ry="2"/><rect class="c" x="562" y="50" rx="2" ry="2"/><rect class="c" x="562" y="66" rx="2" ry="2"/><rect class="c" x="562" y="82" rx="2" ry="2"/><rect class="c" x="562" y="98" rx="2" ry="2"/><rect class="c" x="578" y="2" rx="2" ry="2"/><rect class="c" x="578" y="18" rx="2" ry="2"/><rect class="c" x="578" y="34" rx="2" ry="2"/><rect class="c" x="578" y="50" rx="2" ry="2"/><rect class="c cv" x="578" y="66" rx="2" ry="2"/><rect class="c" x="578" y="82" rx="2" ry="2"/><rect class="c" x="578" y="98" rx="2" ry="2"/><rect class="c cw" x="594" y="2" rx="2" ry="2"/><rect class="c" x="594" y="18" rx="2" ry="2"/><rect class="c cx" x="594" y="34" rx="2" ry="2"/><rect class="c" x="594" y="50" rx="2" ry="2"/><rect class="c" x="594" y="66" rx="2" ry="2"/><rect class="c" x="594" y="82" rx="2" ry="2"/><rect class="c" x="594" y="98" rx="2" ry="2"/><rect class="c" x="610" y="2" rx="2" ry="2"/><rect class="c" x="610" y="18" rx="2" ry="2"/><rect class="c" x="610" y="34" rx="2" ry="2"/><rect class="c" x="610" y="50" rx="2" ry="2"/><rect class="c" x="610" y="66" rx="2" ry="2"/><rect class="c" x="610" y="82" rx="2" ry="2"/><rect class="c" x="610" y="98" rx="2" ry="2"/><rect class="c cy" x="626" y="2" rx="2" ry="2"/><rect class="c cz" x="626" y="18" rx="2" ry="2"/><rect class="c c10" x="626" y="34" rx="2" ry="2"/><rect class="c" x="626" y="50" rx="2" ry="2"/><rect class="c" x="626" y="66" rx="2" ry="2"/><rect class="c" x="626" y="82" rx="2" ry="2"/><rect class="c" x="626" y="98" rx="2" ry="2"/><rect class="c" x="642" y="2" rx="2" ry="2"/><rect class="c" x="642" y="18" rx="2" ry="2"/><rect class="c" x="642" y="34" rx="2" ry="2"/><rect class="c" x="642" y="50" rx="2" ry="2"/><rect class="c" x="642" y="66" rx="2" ry="2"/><rect class="c" x="642" y="82" rx="2" ry="2"/><rect class="c" x="642" y="98" rx="2" ry="2"/><rect class="c" x="658" y="2" rx="2" ry="2"/><rect class="c" x="658" y="18" rx="2" ry="2"/><rect class="c" x="658" y="34" rx="2" ry="2"/><rect class="c" x="658" y="50" rx="2" ry="2"/><rect class="c" x="658" y="66" rx="2" ry="2"/><rect class="c c11" x="658" y="82" rx="2" ry="2"/><rect class="c" x="658" y="98" rx="2" ry="2"/><rect class="c" x="674" y="2" rx="2" ry="2"/><rect class="c c12" x="674" y="18" rx="2" ry="2"/><rect class="c c13" x="674" y="34" rx="2" ry="2"/><rect class="c c14" x="674" y="50" rx="2" ry="2"/><rect class="c" x="674" y="66" rx="2" ry="2"/><rect class="c" x="674" y="82" rx="2" ry="2"/><rect class="c" x="674" y="98" rx="2" ry="2"/><rect class="c c15" x="690" y="2" rx="2" ry="2"/><rect class="c c16" x="690" y="18" rx="2" ry="2"/><rect class="c c17" x="690" y="34" rx="2" ry="2"/><rect class="c c18" x="690" y="50" rx="2" ry="2"/><rect class="c" x="690" y="66" rx="2" ry="2"/><rect class="c" x="690" y="82" rx="2" ry="2"/><rect class="c" x="690" y="98" rx="2" ry="2"/><rect class="c" x="706" y="2" rx="2" ry="2"/><rect class="c" x="706" y="18" rx="2" ry="2"/><rect class="c" x="706" y="34" rx="2" ry="2"/><rect class="c" x="706" y="50" rx="2" ry="2"/><rect class="c" x="706" y="66" rx="2" ry="2"/><rect class="c" x="706" y="82" rx="2" ry="2"/><rect class="c" x="706" y="98" rx="2" ry="2"/><rect class="c" x="722" y="2" rx="2" ry="2"/><rect class="c" x="722" y="18" rx="2" ry="2"/><rect class="c" x="722" y="34" rx="2" ry="2"/><rect class="c" x="722" y="50" rx="2" ry="2"/><rect class="c" x="722" y="66" rx="2" ry="2"/><rect class="c" x="722" y="82" rx="2" ry="2"/><rect class="c" x="722" y="98" rx="2" ry="2"/><rect class="c" x="738" y="2" rx="2" ry="2"/><rect class="c" x="738" y="18" rx="2" ry="2"/><rect class="c" x="738" y="34" rx="2" ry="2"/><rect class="c" x="738" y="50" rx="2" ry="2"/><rect class="c" x="738" y="66" rx="2" ry="2"/><rect class="c" x="738" y="82" rx="2" ry="2"/><rect class="c" x="738" y="98" rx="2" ry="2"/><rect class="c" x="754" y="2" rx="2" ry="2"/><rect class="c" x="754" y="18" rx="2" ry="2"/><rect class="c" x="754" y="34" rx="2" ry="2"/><rect class="c" x="754" y="50" rx="2" ry="2"/><rect class="c" x="754" y="66" rx="2" ry="2"/><rect class="c c19" x="754" y="82" rx="2" ry="2"/><rect class="c c1a" x="754" y="98" rx="2" ry="2"/><rect class="c c1b" x="770" y="2" rx="2" ry="2"/><rect class="c" x="770" y="18" rx="2" ry="2"/><rect class="c c1c" x="770" y="34" rx="2" ry="2"/><rect class="c" x="770" y="50" rx="2" ry="2"/><rect class="c" x="770" y="66" rx="2" ry="2"/><rect class="c c1d" x="770" y="82" rx="2" ry="2"/><rect class="c" x="770" y="98" rx="2" ry="2"/><rect class="c" x="786" y="2" rx="2" ry="2"/><rect class="c" x="786" y="18" rx="2" ry="2"/><rect class="c" x="786" y="34" rx="2" ry="2"/><rect class="c c1e" x="786" y="50" rx="2" ry="2"/><rect class="c" x="786" y="66" rx="2" ry="2"/><rect class="c" x="786" y="82" rx="2" ry="2"/><rect class="c" x="786" y="98" rx="2" ry="2"/><rect class="c" x="802" y="2" rx="2" ry="2"/><rect class="c" x="802" y="18" rx="2" ry="2"/><rect class="c" x="802" y="34" rx="2" ry="2"/><rect class="c" x="802" y="50" rx="2" ry="2"/><rect class="c" x="802" y="66" rx="2" ry="2"/><rect class="c" x="802" y="82" rx="2" ry="2"/><rect class="c" x="802" y="98" rx="2" ry="2"/><rect class="c" x="818" y="2" rx="2" ry="2"/><rect class="c" x="818" y="18" rx="2" ry="2"/><rect class="c" x="818" y="34" rx="2" ry="2"/><rect class="c" x="818" y="50" rx="2" ry="2"/><rect class="c" x="818" y="66" rx="2" ry="2"/><rect class="c" x="818" y="82" rx="2" ry="2"/><rect class="c" x="818" y="98" rx="2" ry="2"/><rect class="c" x="834" y="2" rx="2" ry="2"/><rect class="c" x="834" y="18" rx="2" ry="2"/><rect class="c" x="834" y="34" rx="2" ry="2"/><rect class="c" x="834" y="50" rx="2" ry="2"/><rect class="c" x="834" y="66" rx="2" ry="2"/><rect class="c c1f" x="834" y="82" rx="2" ry="2"/><rect class="c" x="834" y="98" rx="2" ry="2"/><rect class="u u0" height="12" width="180.0" x="0.0" y="144"/><rect class="u u1" height="12" width="375.7" x="179.4" y="144"/><rect class="u u2" height="12" width="98.4" x="554.5" y="144"/><rect class="u u3" height="12" width="196.3" x="652.3" y="144"/><rect class="s s0" x="0.8" y="0.8" width="14.4" height="14.4" rx="4.5" ry="4.5"/><rect class="s s1" x="1.8" y="1.8" width="12.3" height="12.3" rx="4.1" ry="4.1"/><rect class="s s2" x="2.6" y="2.6" width="10.8" height="10.8" rx="3.6" ry="3.6"/><rect class="s s3" x="3.0" y="3.0" width="9.9" height="9.9" rx="3.3" ry="3.3"/></svg>