<svg viewBox="-16 -32 880 192" width="880" height="192" xmlns="http://www.w3.org/2000/svg"><desc>Generated with https://github.com/Platane/snk</desc><style>:root{--cb:#1b1f230a;--cs:invisible;--ce:#ebedf0;--c0:#ebedf0;--c1:#b0e0e6;--c2:#87cefa;--c3:#00bfff;--c4:#1e90ff}.c{shape-rendering:geometricPrecision;fill:var(--ce);stroke-width:1px;stroke:var(--cb);animation:none 32700ms linear infinite;width:12px;height:12px}@keyframes c0{7.33%{fill:var(--c1)}7.35%,100%{fill:var(--ce)}}.c.c0{fill:var(--c1);animation-name:c0}@keyframes c1{96.32%{fill:var(--c4)}96.34%,100%{fill:var(--ce)}}.c.c1{fill:var(--c4);animation-name:c1}@keyframes c2{96.01%{fill:var(--c4)}96.03%,100%{fill:var(--ce)}}.c.c2{fill:var(--c4);animation-name:c2}@keyframes c3{6.41%{fill:var(--c1)}6.43%,100%{fill:var(--ce)}}.c.c3{fill:var(--c1);animation-name:c3}@keyframes c4{98.16%{fill:var(--c4)}98.18%,100%{fill:var(--ce)}}.c.c4{fill:var(--c4);animation-name:c4}@keyframes c5{2.13%{fill:var(--c1)}2.15%,100%{fill:var(--ce)}}.c.c5{fill:var(--c1);animation-name:c5}@keyframes c6{52.59%{fill:var(--c2)}52.61%,100%{fill:var(--ce)}}.c.c6{fill:var(--c2);animation-name:c6}@keyframes c7{51.98%{fill:var(--c2)}52%,100%{fill:var(--ce)}}.c.c7{fill:var(--c2);animation-name:c7}@keyframes c8{3.97%{fill:var(--c1)}3.99%,100%{fill:var(--ce)}}.c.c8{fill:var(--c1);animation-name:c8}@keyframes c9{94.49%{fill:var(--c4)}94.51%,100%{fill:var(--ce)}}.c.c9{fill:var(--c4);animation-name:c9}@keyframes ca{50.45%{fill:var(--c2)}50.47%,100%{fill:var(--ce)}}.c.ca{fill:var(--c2);animation-name:ca}@keyframes cb{93.87%{fill:var(--c4)}93.89%,100%{fill:var(--ce)}}.c.cb{fill:var(--c4);animation-name:cb}@keyframes cc{59.93%{fill:var(--c3)}59.95%,100%{fill:var(--ce)}}.c.cc{fill:var(--c3);animation-name:cc}@keyframes cd{54.12%{fill:var(--c2)}54.14%,100%{fill:var(--ce)}}.c.cd{fill:var(--c2);animation-name:cd}@keyframes ce{93.57%{fill:var(--c4)}93.59%,100%{fill:var(--ce)}}.c.ce{fill:var(--c4);animation-name:ce}@keyframes cf{58.09%{fill:var(--c3)}58.11%,100%{fill:var(--ce)}}.c.cf{fill:var(--c3);animation-name:cf}@keyframes cg{92.34%{fill:var(--c4)}92.36%,100%{fill:var(--ce)}}.c.cg{fill:var(--c4);animation-name:cg}@keyframes ch{55.95%{fill:var(--c2)}55.97%,100%{fill:var(--ce)}}.c.ch{fill:var(--c2);animation-name:ch}@keyframes ci{11.92%{fill:var(--c1)}11.94%,100%{fill:var(--ce)}}.c.ci{fill:var(--c1);animation-name:ci}@keyframes cj{63.9%{fill:var(--c3)}63.92%,100%{fill:var(--ce)}}.c.cj{fill:var(--c3);animation-name:cj}@keyframes ck{41.89%{fill:var(--c2)}41.91%,100%{fill:var(--ce)}}.c.ck{fill:var(--c2);animation-name:ck}@keyframes cl{42.5%{fill:var(--c2)}42.52%,100%{fill:var(--ce)}}.c.cl{fill:var(--c2);animation-name:cl}@keyframes cm{86.84%{fill:var(--c4)}86.86%,100%{fill:var(--ce)}}.c.cm{fill:var(--c4);animation-name:cm}@keyframes cn{43.11%{fill:var(--c2)}43.13%,100%{fill:var(--ce)}}.c.cn{fill:var(--c2);animation-name:cn}@keyframes co{43.42%{fill:var(--c2)}43.44%,100%{fill:var(--ce)}}.c.co{fill:var(--c2);animation-name:co}@keyframes cp{46.17%{fill:var(--c2)}46.19%,100%{fill:var(--ce)}}.c.cp{fill:var(--c2);animation-name:cp}@keyframes cq{88.68%{fill:var(--c4)}88.7%,100%{fill:var(--ce)}}.c.cq{fill:var(--c4);animation-name:cq}@keyframes cr{65.74%{fill:var(--c3)}65.76%,100%{fill:var(--ce)}}.c.cr{fill:var(--c3);animation-name:cr}@keyframes cs{40.97%{fill:var(--c2)}40.99%,100%{fill:var(--ce)}}.c.cs{fill:var(--c2);animation-name:cs}@keyframes ct{36.99%{fill:var(--c2)}37.01%,100%{fill:var(--ce)}}.c.ct{fill:var(--c2);animation-name:ct}@keyframes cu{35.77%{fill:var(--c2)}35.79%,100%{fill:var(--ce)}}.c.cu{fill:var(--c2);animation-name:cu}@keyframes cv{70.94%{fill:var(--c3)}70.96%,100%{fill:var(--ce)}}.c.cv{fill:var(--c3);animation-name:cv}@keyframes cw{35.16%{fill:var(--c2)}35.18%,100%{fill:var(--ce)}}.c.cw{fill:var(--c2);animation-name:cw}@keyframes cx{34.55%{fill:var(--c2)}34.57%,100%{fill:var(--ce)}}.c.cx{fill:var(--c2);animation-name:cx}@keyframes cy{21.7%{fill:var(--c1)}21.72%,100%{fill:var(--ce)}}.c.cy{fill:var(--c1);animation-name:cy}@keyframes cz{21.4%{fill:var(--c1)}21.42%,100%{fill:var(--ce)}}.c.cz{fill:var(--c1);animation-name:cz}@keyframes c10{21.09%{fill:var(--c1)}21.11%,100%{fill:var(--ce)}}.c.c10{fill:var(--c1);animation-name:c10}@keyframes c11{80.11%{fill:var(--c4)}80.13%,100%{fill:var(--ce)}}.c.c11{fill:var(--c4);animation-name:c11}@keyframes c12{22.93%{fill:var(--c1)}22.95%,100%{fill:var(--ce)}}.c.c12{fill:var(--c1);animation-name:c12}@keyframes c13{33.02%{fill:var(--c2)}33.04%,100%{fill:var(--ce)}}.c.c13{fill:var(--c2);animation-name:c13}@keyframes c14{24.15%{fill:var(--c1)}24.17%,100%{fill:var(--ce)}}.c.c14{fill:var(--c1);animation-name:c14}@keyframes c15{77.97%{fill:var(--c4)}77.99%,100%{fill:var(--ce)}}.c.c15{fill:var(--c4);animation-name:c15}@keyframes c16{77.67%{fill:var(--c4)}77.69%,100%{fill:var(--ce)}}.c.c16{fill:var(--c4);animation-name:c16}@keyframes c17{32.71%{fill:var(--c2)}32.73%,100%{fill:var(--ce)}}.c.c17{fill:var(--c2);animation-name:c17}@keyframes c18{32.41%{fill:var(--c2)}32.43%,100%{fill:var(--ce)}}.c.c18{fill:var(--c2);animation-name:c18}@keyframes c19{29.96%{fill:var(--c2)}29.98%,100%{fill:var(--ce)}}.c.c19{fill:var(--c2);animation-name:c19}@keyframes c1a{30.27%{fill:var(--c2)}30.29%,100%{fill:var(--ce)}}.c.c1a{fill:var(--c2);animation-name:c1a}@keyframes c1b{27.51%{fill:var(--c1)}27.53%,100%{fill:var(--ce)}}.c.c1b{fill:var(--c1);animation-name:c1b}@keyframes c1c{28.74%{fill:var(--c2)}28.76%,100%{fill:var(--ce)}}.c.c1c{fill:var(--c2);animation-name:c1c}@keyframes c1d{29.65%{fill:var(--c2)}29.67%,100%{fill:var(--ce)}}.c.c1d{fill:var(--c2);animation-name:c1d}@keyframes c1e{75.22%{fill:var(--c3)}75.24%,100%{fill:var(--ce)}}.c.c1e{fill:var(--c3);animation-name:c1e}.u{transform-origin:0 0;transform:scale(0,1);animation:none linear 32700ms infinite}@keyframes u0{2.13%{transform:scale(0.000,1)}2.15%,3.97%{transform:scale(0.091,1)}3.99%,6.41%{transform:scale(0.182,1)}6.43%,7.33%{transform:scale(0.273,1)}7.35%,11.92%{transform:scale(0.364,1)}11.94%,21.09%{transform:scale(0.455,1)}21.11%,21.4%{transform:scale(0.545,1)}21.42%,21.7%{transform:scale(0.636,1)}21.72%,22.93%{transform:scale(0.727,1)}22.95%,24.15%{transform:scale(0.818,1)}24.17%,27.51%{transform:scale(0.909,1)}27.53%,100%{transform:scale(1.000,1)}}.u.u0{fill:var(--c1);animation-name:u0;transform-origin:0.0px 0}@keyframes u1{28.74%{transform:scale(0.000,1)}28.76%,29.65%{transform:scale(0.045,1)}29.67%,29.96%{transform:scale(0.091,1)}29.98%,30.27%{transform:scale(0.136,1)}30.29%,32.41%{transform:scale(0.182,1)}32.43%,32.71%{transform:scale(0.227,1)}32.73%,33.02%{transform:scale(0.273,1)}33.04%,34.55%{transform:scale(0.318,1)}34.57%,35.16%{transform:scale(0.364,1)}35.18%,35.77%{transform:scale(0.409,1)}35.79%,36.99%{transform:scale(0.455,1)}37.01%,40.97%{transform:scale(0.500,1)}40.99%,41.89%{transform:scale(0.545,1)}41.91%,42.5%{transform:scale(0.591,1)}42.52%,43.11%{transform:scale(0.636,1)}43.13%,43.42%{transform:scale(0.682,1)}43.44%,46.17%{transform:scale(0.727,1)}46.19%,50.45%{transform:scale(0.773,1)}50.47%,51.98%{transform:scale(0.818,1)}52%,52.59%{transform:scale(0.864,1)}52.61%,54.12%{transform:scale(0.909,1)}54.14%,55.95%{transform:scale(0.955,1)}55.97%,100%{transform:scale(1.000,1)}}.u.u1{fill:var(--c2);animation-name:u1;transform-origin:182.9px 0}@keyframes u2{58.09%{transform:scale(0.000,1)}58.11%,59.93%{transform:scale(0.167,1)}59.95%,63.9%{transform:scale(0.333,1)}63.92%,65.74%{transform:scale(0.500,1)}65.76%,70.94%{transform:scale(0.667,1)}70.96%,75.22%{transform:scale(0.833,1)}75.24%,100%{transform:scale(1.000,1)}}.u.u2{fill:var(--c3);animation-name:u2;transform-origin:548.7px 0}@keyframes u3{77.67%{transform:scale(0.000,1)}77.69%,77.97%{transform:scale(0.083,1)}77.99%,80.11%{transform:scale(0.167,1)}80.13%,86.84%{transform:scale(0.250,1)}86.86%,88.68%{transform:scale(0.333,1)}88.7%,92.34%{transform:scale(0.417,1)}92.36%,93.57%{transform:scale(0.500,1)}93.59%,93.87%{transform:scale(0.583,1)}93.89%,94.49%{transform:scale(0.667,1)}94.51%,96.01%{transform:scale(0.750,1)}96.03%,96.32%{transform:scale(0.833,1)}96.34%,98.16%{transform:scale(0.917,1)}98.18%,100%{transform:scale(1.000,1)}}.u.u3{fill:var(--c4);animation-name:u3;transform-origin:648.5px 0}.s{shape-rendering:geometricPrecision;fill:var(--cs);animation:none linear 32700ms infinite}@keyframes s0{0%,99.69%{transform:translate(0px,-16px)}0.31%{transform:translate(0px,0px)}1.22%{transform:translate(48px,0px)}1.53%,2.75%{transform:translate(48px,16px)}1.83%{transform:translate(64px,16px)}2.14%,52.29%{transform:translate(64px,32px)}2.45%{transform:translate(48px,32px)}3.98%{transform:translate(112px,16px)}4.28%,94.19%{transform:translate(112px,32px)}4.59%{transform:translate(96px,32px)}4.89%,53.21%{transform:translate(96px,48px)}5.2%{transform:translate(80px,48px)}5.5%{transform:translate(80px,64px)}5.81%{transform:translate(64px,64px)}6.12%{transform:translate(64px,80px)}7.03%{transform:translate(16px,80px)}7.34%{transform:translate(16px,96px)}11.31%{transform:translate(224px,96px)}11.93%{transform:translate(224px,64px)}13.46%{transform:translate(304px,64px)}13.76%{transform:translate(304px,48px)}14.37%,41.28%{transform:translate(336px,48px)}14.68%,42.81%{transform:translate(336px,64px)}19.27%{transform:translate(576px,64px)}19.57%{transform:translate(576px,48px)}20.8%{transform:translate(640px,48px)}21.71%{transform:translate(640px,0px)}22.63%{transform:translate(688px,0px)}22.94%{transform:translate(688px,16px)}23.24%{transform:translate(672px,16px)}23.85%{transform:translate(672px,48px)}24.16%{transform:translate(688px,48px)}24.46%{transform:translate(688px,64px)}25.99%{transform:translate(768px,64px)}26.91%{transform:translate(768px,16px)}27.22%,28.44%{transform:translate(784px,16px)}27.52%{transform:translate(784px,0px)}27.83%{transform:translate(800px,0px)}28.13%,75.84%{transform:translate(800px,16px)}29.66%{transform:translate(784px,80px)}29.97%{transform:translate(768px,80px)}30.28%{transform:translate(768px,96px)}30.58%{transform:translate(752px,96px)}31.5%{transform:translate(752px,48px)}32.42%{transform:translate(704px,48px)}32.72%{transform:translate(704px,32px)}34.56%{transform:translate(608px,32px)}35.17%{transform:translate(608px,0px)}36.09%{transform:translate(560px,0px)}37%{transform:translate(560px,48px)}41.59%,65.44%{transform:translate(336px,32px)}41.9%{transform:translate(320px,32px)}42.51%,87.16%{transform:translate(320px,64px)}43.43%{transform:translate(336px,96px)}44.04%{transform:translate(368px,96px)}45.87%{transform:translate(368px,0px)}51.38%{transform:translate(80px,0px)}51.99%{transform:translate(80px,32px)}52.6%,97.25%{transform:translate(64px,48px)}53.52%{transform:translate(96px,64px)}55.66%{transform:translate(208px,64px)}55.96%{transform:translate(208px,80px)}56.27%{transform:translate(224px,80px)}57.49%{transform:translate(224px,16px)}58.72%{transform:translate(160px,16px)}59.33%{transform:translate(160px,48px)}59.94%{transform:translate(128px,48px)}60.24%{transform:translate(128px,64px)}63%{transform:translate(272px,64px)}63.91%{transform:translate(272px,16px)}65.14%{transform:translate(336px,16px)}70.34%{transform:translate(592px,32px)}70.95%{transform:translate(592px,64px)}74.92%{transform:translate(800px,64px)}77.68%{transform:translate(704px,16px)}77.98%{transform:translate(704px,0px)}78.59%{transform:translate(672px,0px)}80.12%{transform:translate(672px,80px)}86.85%{transform:translate(320px,80px)}87.77%{transform:translate(352px,64px)}88.69%{transform:translate(352px,16px)}91.74%{transform:translate(192px,16px)}92.35%{transform:translate(192px,48px)}92.66%{transform:translate(176px,48px)}92.97%{transform:translate(176px,32px)}94.5%{transform:translate(112px,48px)}95.72%{transform:translate(48px,48px)}96.02%{transform:translate(48px,64px)}96.33%{transform:translate(32px,64px)}96.64%{transform:translate(32px,48px)}98.47%{transform:translate(64px,-16px)}}.s.s0{transform:translate(0px,-16px);animation-name:s0}@keyframes s1{0%,99.69%{transform:translate(16px,-16px)}0.31%{transform:translate(0px,-16px)}0.61%{transform:translate(0px,0px)}1.53%{transform:translate(48px,0px)}1.83%,3.06%{transform:translate(48px,16px)}2.14%{transform:translate(64px,16px)}2.45%,52.6%{transform:translate(64px,32px)}2.75%{transform:translate(48px,32px)}4.28%{transform:translate(112px,16px)}4.59%,94.5%{transform:translate(112px,32px)}4.89%{transform:translate(96px,32px)}5.2%,53.52%{transform:translate(96px,48px)}5.5%{transform:translate(80px,48px)}5.81%{transform:translate(80px,64px)}6.12%{transform:translate(64px,64px)}6.42%{transform:translate(64px,80px)}7.34%{transform:translate(16px,80px)}7.65%{transform:translate(16px,96px)}11.62%{transform:translate(224px,96px)}12.23%{transform:translate(224px,64px)}13.76%{transform:translate(304px,64px)}14.07%{transform:translate(304px,48px)}14.68%,41.59%{transform:translate(336px,48px)}14.98%,43.12%{transform:translate(336px,64px)}19.57%{transform:translate(576px,64px)}19.88%{transform:translate(576px,48px)}21.1%{transform:translate(640px,48px)}22.02%{transform:translate(640px,0px)}22.94%{transform:translate(688px,0px)}23.24%{transform:translate(688px,16px)}23.55%{transform:translate(672px,16px)}24.16%{transform:translate(672px,48px)}24.46%{transform:translate(688px,48px)}24.77%{transform:translate(688px,64px)}26.3%{transform:translate(768px,64px)}27.22%{transform:translate(768px,16px)}27.52%,28.75%{transform:translate(784px,16px)}27.83%{transform:translate(784px,0px)}28.13%{transform:translate(800px,0px)}28.44%,76.15%{transform:translate(800px,16px)}29.97%{transform:translate(784px,80px)}30.28%{transform:translate(768px,80px)}30.58%{transform:translate(768px,96px)}30.89%{transform:translate(752px,96px)}31.8%{transform:translate(752px,48px)}32.72%{transform:translate(704px,48px)}33.03%{transform:translate(704px,32px)}34.86%{transform:translate(608px,32px)}35.47%{transform:translate(608px,0px)}36.39%{transform:translate(560px,0px)}37.31%{transform:translate(560px,48px)}41.9%,65.75%{transform:translate(336px,32px)}42.2%{transform:translate(320px,32px)}42.81%,87.46%{transform:translate(320px,64px)}43.73%{transform:translate(336px,96px)}44.34%{transform:translate(368px,96px)}46.18%{transform:translate(368px,0px)}51.68%{transform:translate(80px,0px)}52.29%{transform:translate(80px,32px)}52.91%,97.55%{transform:translate(64px,48px)}53.82%{transform:translate(96px,64px)}55.96%{transform:translate(208px,64px)}56.27%{transform:translate(208px,80px)}56.57%{transform:translate(224px,80px)}57.8%{transform:translate(224px,16px)}59.02%{transform:translate(160px,16px)}59.63%{transform:translate(160px,48px)}60.24%{transform:translate(128px,48px)}60.55%{transform:translate(128px,64px)}63.3%{transform:translate(272px,64px)}64.22%{transform:translate(272px,16px)}65.44%{transform:translate(336px,16px)}70.64%{transform:translate(592px,32px)}71.25%{transform:translate(592px,64px)}75.23%{transform:translate(800px,64px)}77.98%{transform:translate(704px,16px)}78.29%{transform:translate(704px,0px)}78.9%{transform:translate(672px,0px)}80.43%{transform:translate(672px,80px)}87.16%{transform:translate(320px,80px)}88.07%{transform:translate(352px,64px)}88.99%{transform:translate(352px,16px)}92.05%{transform:translate(192px,16px)}92.66%{transform:translate(192px,48px)}92.97%{transform:translate(176px,48px)}93.27%{transform:translate(176px,32px)}94.8%{transform:translate(112px,48px)}96.02%{transform:translate(48px,48px)}96.33%{transform:translate(48px,64px)}96.64%{transform:translate(32px,64px)}96.94%{transform:translate(32px,48px)}98.78%{transform:translate(64px,-16px)}}.s.s1{transform:translate(16px,-16px);animation-name:s1}@keyframes s2{0%,99.69%{transform:translate(32px,-16px)}0.61%{transform:translate(0px,-16px)}0.92%{transform:translate(0px,0px)}1.83%{transform:translate(48px,0px)}2.14%,3.36%{transform:translate(48px,16px)}2.45%{transform:translate(64px,16px)}2.75%,52.91%{transform:translate(64px,32px)}3.06%{transform:translate(48px,32px)}4.59%{transform:translate(112px,16px)}4.89%,94.8%{transform:translate(112px,32px)}5.2%{transform:translate(96px,32px)}5.5%,53.82%{transform:translate(96px,48px)}5.81%{transform:translate(80px,48px)}6.12%{transform:translate(80px,64px)}6.42%{transform:translate(64px,64px)}6.73%{transform:translate(64px,80px)}7.65%{transform:translate(16px,80px)}7.95%{transform:translate(16px,96px)}11.93%{transform:translate(224px,96px)}12.54%{transform:translate(224px,64px)}14.07%{transform:translate(304px,64px)}14.37%{transform:translate(304px,48px)}14.98%,41.9%{transform:translate(336px,48px)}15.29%,43.43%{transform:translate(336px,64px)}19.88%{transform:translate(576px,64px)}20.18%{transform:translate(576px,48px)}21.41%{transform:translate(640px,48px)}22.32%{transform:translate(640px,0px)}23.24%{transform:translate(688px,0px)}23.55%{transform:translate(688px,16px)}23.85%{transform:translate(672px,16px)}24.46%{transform:translate(672px,48px)}24.77%{transform:translate(688px,48px)}25.08%{transform:translate(688px,64px)}26.61%{transform:translate(768px,64px)}27.52%{transform:translate(768px,16px)}27.83%,29.05%{transform:translate(784px,16px)}28.13%{transform:translate(784px,0px)}28.44%{transform:translate(800px,0px)}28.75%,76.45%{transform:translate(800px,16px)}30.28%{transform:translate(784px,80px)}30.58%{transform:translate(768px,80px)}30.89%{transform:translate(768px,96px)}31.19%{transform:translate(752px,96px)}32.11%{transform:translate(752px,48px)}33.03%{transform:translate(704px,48px)}33.33%{transform:translate(704px,32px)}35.17%{transform:translate(608px,32px)}35.78%{transform:translate(608px,0px)}36.7%{transform:translate(560px,0px)}37.61%{transform:translate(560px,48px)}42.2%,66.06%{transform:translate(336px,32px)}42.51%{transform:translate(320px,32px)}43.12%,87.77%{transform:translate(320px,64px)}44.04%{transform:translate(336px,96px)}44.65%{transform:translate(368px,96px)}46.48%{transform:translate(368px,0px)}51.99%{transform:translate(80px,0px)}52.6%{transform:translate(80px,32px)}53.21%,97.86%{transform:translate(64px,48px)}54.13%{transform:translate(96px,64px)}56.27%{transform:translate(208px,64px)}56.57%{transform:translate(208px,80px)}56.88%{transform:translate(224px,80px)}58.1%{transform:translate(224px,16px)}59.33%{transform:translate(160px,16px)}59.94%{transform:translate(160px,48px)}60.55%{transform:translate(128px,48px)}60.86%{transform:translate(128px,64px)}63.61%{transform:translate(272px,64px)}64.53%{transform:translate(272px,16px)}65.75%{transform:translate(336px,16px)}70.95%{transform:translate(592px,32px)}71.56%{transform:translate(592px,64px)}75.54%{transform:translate(800px,64px)}78.29%{transform:translate(704px,16px)}78.59%{transform:translate(704px,0px)}79.2%{transform:translate(672px,0px)}80.73%{transform:translate(672px,80px)}87.46%{transform:translate(320px,80px)}88.38%{transform:translate(352px,64px)}89.3%{transform:translate(352px,16px)}92.35%{transform:translate(192px,16px)}92.97%{transform:translate(192px,48px)}93.27%{transform:translate(176px,48px)}93.58%{transform:translate(176px,32px)}95.11%{transform:translate(112px,48px)}96.33%{transform:translate(48px,48px)}96.64%{transform:translate(48px,64px)}96.94%{transform:translate(32px,64px)}97.25%{transform:translate(32px,48px)}99.08%{transform:translate(64px,-16px)}}.s.s2{transform:translate(32px,-16px);animation-name:s2}@keyframes s3{0%,99.69%{transform:translate(48px,-16px)}0.92%{transform:translate(0px,-16px)}1.22%{transform:translate(0px,0px)}2.14%{transform:translate(48px,0px)}2.45%,3.67%{transform:translate(48px,16px)}2.75%{transform:translate(64px,16px)}3.06%,53.21%{transform:translate(64px,32px)}3.36%{transform:translate(48px,32px)}4.89%{transform:translate(112px,16px)}5.2%,95.11%{transform:translate(112px,32px)}5.5%{transform:translate(96px,32px)}5.81%,54.13%{transform:translate(96px,48px)}6.12%{transform:translate(80px,48px)}6.42%{transform:translate(80px,64px)}6.73%{transform:translate(64px,64px)}7.03%{transform:translate(64px,80px)}7.95%{transform:translate(16px,80px)}8.26%{transform:translate(16px,96px)}12.23%{transform:translate(224px,96px)}12.84%{transform:translate(224px,64px)}14.37%{transform:translate(304px,64px)}14.68%{transform:translate(304px,48px)}15.29%,42.2%{transform:translate(336px,48px)}15.6%,43.73%{transform:translate(336px,64px)}20.18%{transform:translate(576px,64px)}20.49%{transform:translate(576px,48px)}21.71%{transform:translate(640px,48px)}22.63%{transform:translate(640px,0px)}23.55%{transform:translate(688px,0px)}23.85%{transform:translate(688px,16px)}24.16%{transform:translate(672px,16px)}24.77%{transform:translate(672px,48px)}25.08%{transform:translate(688px,48px)}25.38%{transform:translate(688px,64px)}26.91%{transform:translate(768px,64px)}27.83%{transform:translate(768px,16px)}28.13%,29.36%{transform:translate(784px,16px)}28.44%{transform:translate(784px,0px)}28.75%{transform:translate(800px,0px)}29.05%,76.76%{transform:translate(800px,16px)}30.58%{transform:translate(784px,80px)}30.89%{transform:translate(768px,80px)}31.19%{transform:translate(768px,96px)}31.5%{transform:translate(752px,96px)}32.42%{transform:translate(752px,48px)}33.33%{transform:translate(704px,48px)}33.64%{transform:translate(704px,32px)}35.47%{transform:translate(608px,32px)}36.09%{transform:translate(608px,0px)}37%{transform:translate(560px,0px)}37.92%{transform:translate(560px,48px)}42.51%,66.36%{transform:translate(336px,32px)}42.81%{transform:translate(320px,32px)}43.43%,88.07%{transform:translate(320px,64px)}44.34%{transform:translate(336px,96px)}44.95%{transform:translate(368px,96px)}46.79%{transform:translate(368px,0px)}52.29%{transform:translate(80px,0px)}52.91%{transform:translate(80px,32px)}53.52%,98.17%{transform:translate(64px,48px)}54.43%{transform:translate(96px,64px)}56.57%{transform:translate(208px,64px)}56.88%{transform:translate(208px,80px)}57.19%{transform:translate(224px,80px)}58.41%{transform:translate(224px,16px)}59.63%{transform:translate(160px,16px)}60.24%{transform:translate(160px,48px)}60.86%{transform:translate(128px,48px)}61.16%{transform:translate(128px,64px)}63.91%{transform:translate(272px,64px)}64.83%{transform:translate(272px,16px)}66.06%{transform:translate(336px,16px)}71.25%{transform:translate(592px,32px)}71.87%{transform:translate(592px,64px)}75.84%{transform:translate(800px,64px)}78.59%{transform:translate(704px,16px)}78.9%{transform:translate(704px,0px)}79.51%{transform:translate(672px,0px)}81.04%{transform:translate(672px,80px)}87.77%{transform:translate(320px,80px)}88.69%{transform:translate(352px,64px)}89.6%{transform:translate(352px,16px)}92.66%{transform:translate(192px,16px)}93.27%{transform:translate(192px,48px)}93.58%{transform:translate(176px,48px)}93.88%{transform:translate(176px,32px)}95.41%{transform:translate(112px,48px)}96.64%{transform:translate(48px,48px)}96.94%{transform:translate(48px,64px)}97.25%{transform:translate(32px,64px)}97.55%{transform:translate(32px,48px)}99.39%{transform:translate(64px,-16px)}}.s.s3{transform:translate(48px,-16px);animation-name:s3}</style><rect class="c" x="2" y="2" rx="2" ry="2"/><rect class="c" x="2" y="18" rx="2" ry="2"/><rect class="c" x="2" y="34" rx="2" ry="2"/><rect class="c" x="2" y="50" rx="2" ry="2"/><rect class="c" x="2" y="66" rx="2" ry="2"/><rect class="c" x="2" y="82" rx="2" ry="2"/><rect class="c" x="2" y="98" rx="2" ry="2"/><rect class="c" x="18" y="2" rx="2" ry="2"/><rect class="c" x="18" y="18" rx="2" ry="2"/><rect class="c" x="18" y="34" rx="2" ry="2"/><rect class="c" x="18" y="50" rx="2" ry="2"/><rect class="c" x="18" y="66" rx="2" ry="2"/><rect class="c" x="18" y="82" rx="2" ry="2"/><rect class="c c0" x="18" y="98" rx="2" ry="2"/><rect class="c" x="34" y="2" rx="2" ry="2"/><rect class="c" x="34" y="18" rx="2" ry="2"/><rect class="c" x="34" y="34" rx="2" ry="2"/><rect class="c" x="34" y="50" rx="2" ry="2"/><rect class="c c1" x="34" y="66" rx="2" ry="2"/><rect class="c" x="34" y="82" rx="2" ry="2"/><rect class="c" x="34" y="98" rx="2" ry="2"/><rect class="c" x="50" y="2" rx="2" ry="2"/><rect class="c" x="50" y="18" rx="2" ry="2"/><rect class="c" x="50" y="34" rx="2" ry="2"/><rect class="c" x="50" y="50" rx="2" ry="2"/><rect class="c c2" x="50" y="66" rx="2" ry="2"/><rect class="c c3" x="50" y="82" rx="2" ry="2"/><rect class="c" x="50" y="98" rx="2" ry="2"/><rect class="c c4" x="66" y="2" rx="2" ry="2"/><rect class="c" x="66" y="18" rx="2" ry="2"/><rect class="c c5" x="66" y="34" rx="2" ry="2"/><rect class="c c6" x="66" y="50" rx="2" ry="2"/><rect class="c" x="66" y="66" rx="2" ry="2"/><rect class="c" x="66" y="82" rx="2" ry="2"/><rect class="c" x="66" y="98" rx="2" ry="2"/><rect class="c" x="82" y="2" rx="2" ry="2"/><rect class="c" x="82" y="18" rx="2" ry="2"/><rect class="c c7" x="82" y="34" rx="2" ry="2"/><rect class="c" x="82" y="50" rx="2" ry="2"/><rect class="c" x="82" y="66" rx="2" ry="2"/><rect class="c" x="82" y="82" rx="2" ry="2"/><rect class="c" x="82" y="98" rx="2" ry="2"/><rect class="c" x="98" y="2" rx="2" ry="2"/><rect class="c" x="98" y="18" rx="2" ry="2"/><rect class="c" x="98" y="34" rx="2" ry="2"/><rect class="c" x="98" y="50" rx="2" ry="2"/><rect class="c" x="98" y="66" rx="2" ry="2"/><rect class="c" x="98" y="82" rx="2" ry="2"/><rect class="c" x="98" y="98" rx="2" ry="2"/><rect class="c" x="114" y="2" rx="2" ry="2"/><rect class="c c8" x="114" y="18" rx="2" ry="2"/><rect class="c" x="114" y="34" rx="2" ry="2"/><rect class="c c9" x="114" y="50" rx="2" ry="2"/><rect class="c" x="114" y="66" rx="2" ry="2"/><rect class="c" x="114" y="82" rx="2" ry="2"/><rect class="c" x="114" y="98" rx="2" ry="2"/><rect class="c ca" x="130" y="2" rx="2" ry="2"/><rect class="c" x="130" y="18" rx="2" ry="2"/><rect class="c cb" x="130" y="34" rx="2" ry="2"/><rect class="c cc" x="130" y="50" rx="2" ry="2"/><rect class="c cd" x="130" y="66" rx="2" ry="2"/><rect class="c" x="130" y="82" rx="2" ry="2"/><rect class="c" x="130" y="98" rx="2" ry="2"/><rect class="c" x="146" y="2" rx="2" ry="2"/><rect class="c" x="146" y="18" rx="2" ry="2"/><rect class="c ce" x="146" y="34" rx="2" ry="2"/><rect class="c" x="146" y="50" rx="2" ry="2"/><rect class="c" x="146" y="66" rx="2" ry="2"/><rect class="c" x="146" y="82" rx="2" ry="2"/><rect class="c" x="146" y="98" rx="2" ry="2"/><rect class="c" x="162" y="2" rx="2" ry="2"/><rect class="c" x="162" y="18" rx="2" ry="2"/><rect class="c" x="162" y="34" rx="2" ry="2"/><rect class="c" x="162" y="50" rx="2" ry="2"/><rect class="c" x="162" y="66" rx="2" ry="2"/><rect class="c" x="162" y="82" rx="2" ry="2"/><rect class="c" x="162" y="98" rx="2" ry="2"/><rect class="c" x="178" y="2" rx="2" ry="2"/><rect class="c" x="178" y="18" rx="2" ry="2"/><rect class="c" x="178" y="34" rx="2" ry="2"/><rect class="c" x="178" y="50" rx="2" ry="2"/><rect class="c" x="178" y="66" rx="2" ry="2"/><rect class="c" x="178" y="82" rx="2" ry="2"/><rect class="c" x="178" y="98" rx="2" ry="2"/><rect class="c" x="194" y="2" rx="2" ry="2"/><rect class="c cf" x="194" y="18" rx="2" ry="2"/><rect class="c" x="194" y="34" rx="2" ry="2"/><rect class="c cg" x="194" y="50" rx="2" ry="2"/><rect class="c" x="194" y="66" rx="2" ry="2"/><rect class="c" x="194" y="82" rx="2" ry="2"/><rect class="c" x="194" y="98" rx="2" ry="2"/><rect class="c" x="210" y="2" rx="2" ry="2"/><rect class="c" x="210" y="18" rx="2" ry="2"/><rect class="c" x="210" y="34" rx="2" ry="2"/><rect class="c" x="210" y="50" rx="2" ry="2"/><rect class="c" x="210" y="66" rx="2" ry="2"/><rect class="c ch" x="210" y="82" rx="2" ry="2"/><rect class="c" x="210" y="98" rx="2" ry="2"/><rect class="c" x="226" y="2" rx="2" ry="2"/><rect class="c" x="226" y="18" rx="2" ry="2"/><rect class="c" x="226" y="34" rx="2" ry="2"/><rect class="c" x="226" y="50" rx="2" ry="2"/><rect class="c ci" x="226" y="66" rx="2" ry="2"/><rect class="c" x="226" y="82" rx="2" ry="2"/><rect class="c" x="226" y="98" rx="2" ry="2"/><rect class="c" x="242" y="2" rx="2" ry="2"/><rect class="c" x="242" y="18" rx="2" ry="2"/><rect class="c" x="242" y="34" rx="2" ry="2"/><rect class="c" x="242" y="50" rx="2" ry="2"/><rect class="c" x="242" y="66" rx="2" ry="2"/><rect class="c" x="242" y="82" rx="2" ry="2"/><rect class="c" x="242" y="98" rx="2" ry="2"/><rect class="c" x="258" y="2" rx="2" ry="2"/><rect class="c" x="258" y="18" rx="2" ry="2"/><rect class="c" x="258" y="34" rx="2" ry="2"/><rect class="c" x="258" y="50" rx="2" ry="2"/><rect class="c" x="258" y="66" rx="2" ry="2"/><rect class="c" x="258" y="82" rx="2" ry="2"/><rect class="c" x="258" y="98" rx="2" ry="2"/><rect class="c" x="274" y="2" rx="2" ry="2"/><rect class="c cj" x="274" y="18" rx="2" ry="2"/><rect class="c" x="274" y="34" rx="2" ry="2"/><rect class="c" x="274" y="50" rx="2" ry="2"/><rect class="c" x="274" y="66" rx="2" ry="2"/><rect class="c" x="274" y="82" rx="2" ry="2"/><rect class="c" x="274" y="98" rx="2" ry="2"/><rect class="c" x="290" y="2" rx="2" ry="2"/><rect class="c" x="290" y="18" rx="2" ry="2"/><rect class="c" x="290" y="34" rx="2" ry="2"/><rect class="c" x="290" y="50" rx="2" ry="2"/><rect class="c" x="290" y="66" rx="2" ry="2"/><rect class="c" x="290" y="82" rx="2" ry="2"/><rect class="c" x="290" y="98" rx="2" ry="2"/><rect class="c" x="306" y="2" rx="2" ry="2"/><rect class="c" x="306" y="18" rx="2" ry="2"/><rect class="c" x="306" y="34" rx="2" ry="2"/><rect class="c" x="306" y="50" rx="2" ry="2"/><rect class="c" x="306" y="66" rx="2" ry="2"/><rect class="c" x="306" y="82" rx="2" ry="2"/><rect class="c" x="306" y="98" rx="2" ry="2"/><rect class="c" x="322" y="2" rx="2" ry="2"/><rect class="c" x="322" y="18" rx="2" ry="2"/><rect class="c ck" x="322" y="34" rx="2" ry="2"/><rect class="c" x="322" y="50" rx="2" ry="2"/><rect class="c cl" x="322" y="66" rx="2" ry="2"/><rect class="c cm" x="322" y="82" rx="2" ry="2"/><rect class="c" x="322" y="98" rx="2" ry="2"/><rect class="c" x="338" y="2" rx="2" ry="2"/><rect class="c" x="338" y="18" rx="2" ry="2"/><rect class="c" x="338" y="34" rx="2" ry="2"/><rect class="c" x="338" y="50" rx="2" ry="2"/><rect class="c" x="338" y="66" rx="2" ry="2"/><rect class="c cn" x="338" y="82" rx="2" ry="2"/><rect class="c co" x="338" y="98" rx="2" ry="2"/><rect class="c cp" x="354" y="2" rx="2" ry="2"/><rect class="c cq" x="354" y="18" rx="2" ry="2"/><rect class="c cr" x="354" y="34" rx="2" ry="2"/><rect class="c cs" x="354" y="50" rx="2" ry="2"/><rect class="c" x="354" y="66" rx="2" ry="2"/><rect class="c" x="354" y="82" rx="2" ry="2"/><rect class="c" x="354" y="98" rx="2" ry="2"/><rect class="c" x="370" y="2" rx="2" ry="2"/><rect class="c" x="370" y="18" rx="2" ry="2"/><rect class="c" x="370" y="34" rx="2" ry="2"/><rect class="c" x="370" y="50" rx="2" ry="2"/><rect class="c" x="370" y="66" rx="2" ry="2"/><rect class="c" x="370" y="82" rx="2" ry="2"/><rect class="c" x="370" y="98" rx="2" ry="2"/><rect class="c" x="386" y="2" rx="2" ry="2"/><rect class="c" x="386" y="18" rx="2" ry="2"/><rect class="c" x="386" y="34" rx="2" ry="2"/><rect class="c" x="386" y="50" rx="2" ry="2"/><rect class="c" x="386" y="66" rx="2" ry="2"/><rect class="c" x="386" y="82" rx="2" ry="2"/><rect class="c" x="386" y="98" rx="2" ry="2"/><rect class="c" x="402" y="2" rx="2" ry="2"/><rect class="c" x="402" y="18" rx="2" ry="2"/><rect class="c" x="402" y="34" rx="2" ry="2"/><rect class="c" x="402" y="50" rx="2" ry="2"/><rect class="c" x="402" y="66" rx="2" ry="2"/><rect class="c" x="402" y="82" rx="2" ry="2"/><rect class="c" x="402" y="98" rx="2" ry="2"/><rect class="c" x="418" y="2" rx="2" ry="2"/><rect class="c" x="418" y="18" rx="2" ry="2"/><rect class="c" x="418" y="34" rx="2" ry="2"/><rect class="c" x="418" y="50" rx="2" ry="2"/><rect class="c" x="418" y="66" rx="2" ry="2"/><rect class="c" x="418" y="82" rx="2" ry="2"/><rect class="c" x="418" y="98" rx="2" ry="2"/><rect class="c" x="434" y="2" rx="2" ry="2"/><rect class="c" x="434" y="18" rx="2" ry="2"/><rect class="c" x="434" y="34" rx="2" ry="2"/><rect class="c" x="434" y="50" rx="2" ry="2"/><rect class="c" x="434" y="66" rx="2" ry="2"/><rect class="c" x="434" y="82" rx="2" ry="2"/><rect class="c" x="434" y="98" rx="2" ry="2"/><rect class="c" x="450" y="2" rx="2" ry="2"/><rect class="c" x="450" y="18" rx="2" ry="2"/><rect class="c" x="450" y="34" rx="2" ry="2"/><rect class="c" x="450" y="50" rx="2" ry="2"/><rect class="c" x="450" y="66" rx="2" ry="2"/><rect class="c" x="450" y="82" rx="2" ry="2"/><rect class="c" x="450" y="98" rx="2" ry="2"/><rect class="c" x="466" y="2" rx="2" ry="2"/><rect class="c" x="466" y="18" rx="2" ry="2"/><rect class="c" x="466" y="34" rx="2" ry="2"/><rect class="c" x="466" y="50" rx="2" ry="2"/><rect class="c" x="466" y="66" rx="2" ry="2"/><rect class="c" x="466" y="82" rx="2" ry="2"/><rect class="c" x="466" y="98" rx="2" ry="2"/><rect class="c" x="482" y="2" rx="2" ry="2"/><rect class="c" x="482" y="18" rx="2" ry="2"/><rect class="c" x="482" y="34" rx="2" ry="2"/><rect class="c" x="482" y="50" rx="2" ry="2"/><rect class="c" x="482" y="66" rx="2" ry="2"/><rect class="c" x="482" y="82" rx="2" ry="2"/><rect class="c" x="482" y="98" rx="2" ry="2"/><rect class="c" x="498" y="2" rx="2" ry="2"/><rect class="c" x="498" y="18" rx="2" ry="2"/><rect class="c" x="498" y="34" rx="2" ry="2"/><rect class="c" x="498" y="50" rx="2" ry="2"/><rect class="c" x="498" y="66" rx="2" ry="2"/><rect class="c" x="498" y="82" rx="2" ry="2"/><rect class="c" x="498" y="98" rx="2" ry="2"/><rect class="c" x="514" y="2" rx="2" ry="2"/><rect class="c" x="514" y="18" rx="2" ry="2"/><rect class="c" x="514" y="34" rx="2" ry="2"/><rect class="c" x="514" y="50" rx="2" ry="2"/><rect class="c" x="514" y="66" rx="2" ry="2"/><rect class="c" x="514" y="82" rx="2" ry="2"/><rect class="c" x="514" y="98" rx="2" ry="2"/><rect class="c" x="530" y="2" rx="2" ry="2"/><rect class="c" x="530" y="18" rx="2" ry="2"/><rect class="c" x="530" y="34" rx="2" ry="2"/><rect class="c" x="530" y="50" rx="2" ry="2"/><rect class="c" x="530" y="66" rx="2" ry="2"/><rect class="c" x="530" y="82" rx="2" ry="2"/><rect class="c" x="530" y="98" rx="2" ry="2"/><rect class="c" x="546" y="2" rx="2" ry="2"/><rect class="c" x="546" y="18" rx="2" ry="2"/><rect class="c" x="546" y="34" rx="2" ry="2"/><rect class="c" x="546" y="50" rx="2" ry="2"/><rect class="c" x="546" y="66" rx="2" ry="2"/><rect class="c" x="546" y="82" rx="2" ry="2"/><rect class="c" x="546" y="98" rx="2" ry="2"/><rect class="c" x="562" y="2" rx="2" ry="2"/><rect class="c" x="562" y="18" rx="2" ry="2"/><rect class="c" x="562" y="34" rx="2" ry="2"/><rect class="c ct" x="562" y="50" rx="2" ry="2"/><rect class="c" x="562" y="66" rx="2" ry="2"/><rect class="c" x="562" y="82" rx="2" ry="2"/><rect class="c" x="562" y="98" rx="2" ry="2"/><rect class="c cu" x="578" y="2" rx="2" ry="2"/><rect class="c" x="578" y="18" rx="2" ry="2"/><rect class="c" x="578" y="34" rx="2" ry="2"/><rect class="c" x="578" y="50" rx="2" ry="2"/><rect class="c" x="578" y="66" rx="2" ry="2"/><rect class="c" x="578" y="82" rx="2" ry="2"/><rect class="c" x="578" y="98" rx="2" ry="2"/><rect class="c" x="594" y="2" rx="2" ry="2"/><rect class="c" x="594" y="18" rx="2" ry="2"/><rect class="c" x="594" y="34" rx="2" ry="2"/><rect class="c" x="594" y="50" rx="2" ry="2"/><rect class="c cv" x="594" y="66" rx="2" ry="2"/><rect class="c" x="594" y="82" rx="2" ry="2"/><rect class="c" x="594" y="98" rx="2" ry="2"/><rect class="c cw" x="610" y="2" rx="2" ry="2"/><rect class="c" x="610" y="18" rx="2" ry="2"/><rect class="c cx" x="610" y="34" rx="2" ry="2"/><rect class="c" x="610" y="50" rx="2" ry="2"/><rect class="c" x="610" y="66" rx="2" ry="2"/><rect class="c" x="610" y="82" rx="2" ry="2"/><rect class="c" x="610" y="98" rx="2" ry="2"/><rect class="c" x="626" y="2" rx="2" ry="2"/><rect class="c" x="626" y="18" rx="2" ry="2"/><rect class="c" x="626" y="34" rx="2" ry="2"/><rect class="c" x="626" y="50" rx="2" ry="2"/><rect class="c" x="626" y="66" rx="2" ry="2"/><rect class="c" x="626" y="82" rx="2" ry="2"/><rect class="c" x="626" y="98" rx="2" ry="2"/><rect class="c cy" x="642" y="2" rx="2" ry="2"/><rect class="c cz" x="642" y="18" rx="2" ry="2"/><rect class="c c10" x="642" y="34" rx="2" ry="2"/><rect class="c" x="642" y="50" rx="2" ry="2"/><rect class="c" x="642" y="66" rx="2" ry="2"/><rect class="c" x="642" y="82" rx="2" ry="2"/><rect class="c" x="642" y="98" rx="2" ry="2"/><rect class="c" x="658" y="2" rx="2" ry="2"/><rect class="c" x="658" y="18" rx="2" ry="2"/><rect class="c" x="658" y="34" rx="2" ry="2"/><rect class="c" x="658" y="50" rx="2" ry="2"/><rect class="c" x="658" y="66" rx="2" ry="2"/><rect class="c" x="658" y="82" rx="2" ry="2"/><rect class="c" x="658" y="98" rx="2" ry="2"/><rect class="c" x="674" y="2" rx="2" ry="2"/><rect class="c" x="674" y="18" rx="2" ry="2"/><rect class="c" x="674" y="34" rx="2" ry="2"/><rect class="c" x="674" y="50" rx="2" ry="2"/><rect class="c" x="674" y="66" rx="2" ry="2"/><rect class="c c11" x="674" y="82" rx="2" ry="2"/><rect class="c" x="674" y="98" rx="2" ry="2"/><rect class="c" x="690" y="2" rx="2" ry="2"/><rect class="c c12" x="690" y="18" rx="2" ry="2"/><rect class="c c13" x="690" y="34" rx="2" ry="2"/><rect class="c c14" x="690" y="50" rx="2" ry="2"/><rect class="c" x="690" y="66" rx="2" ry="2"/><rect class="c" x="690" y="82" rx="2" ry="2"/><rect class="c" x="690" y="98" rx="2" ry="2"/><rect class="c c15" x="706" y="2" rx="2" ry="2"/><rect class="c c16" x="706" y="18" rx="2" ry="2"/><rect class="c c17" x="706" y="34" rx="2" ry="2"/><rect class="c c18" x="706" y="50" rx="2" ry="2"/><rect class="c" x="706" y="66" rx="2" ry="2"/><rect class="c" x="706" y="82" rx="2" ry="2"/><rect class="c" x="706" y="98" rx="2" ry="2"/><rect class="c" x="722" y="2" rx="2" ry="2"/><rect class="c" x="722" y="18" rx="2" ry="2"/><rect class="c" x="722" y="34" rx="2" ry="2"/><rect class="c" x="722" y="50" rx="2" ry="2"/><rect class="c" x="722" y="66" rx="2" ry="2"/><rect class="c" x="722" y="82" rx="2" ry="2"/><rect class="c" x="722" y="98" rx="2" ry="2"/><rect class="c" x="738" y="2" rx="2" ry="2"/><rect class="c" x="738" y="18" rx="2" ry="2"/><rect class="c" x="738" y="34" rx="2" ry="2"/><rect class="c" x="738" y="50" rx="2" ry="2"/><rect class="c" x="738" y="66" rx="2" ry="2"/><rect class="c" x="738" y="82" rx="2" ry="2"/><rect class="c" x="738" y="98" rx="2" ry="2"/><rect class="c" x="754" y="2" rx="2" ry="2"/><rect class="c" x="754" y="18" rx="2" ry="2"/><rect class="c" x="754" y="34" rx="2" ry="2"/><rect class="c" x="754" y="50" rx="2" ry="2"/><rect class="c" x="754" y="66" rx="2" ry="2"/><rect class="c" x="754" y="82" rx="2" ry="2"/><rect class="c" x="754" y="98" rx="2" ry="2"/><rect class="c" x="770" y="2" rx="2" ry="2"/><rect class="c" x="770" y="18" rx="2" ry="2"/><rect class="c" x="770" y="34" rx="2" ry="2"/><rect class="c" x="770" y="50" rx="2" ry="2"/><rect class="c" x="770" y="66" rx="2" ry="2"/><rect class="c c19" x="770" y="82" rx="2" ry="2"/><rect class="c c1a" x="770" y="98" rx="2" ry="2"/><rect class="c c1b" x="786" y="2" rx="2" ry="2"/><rect class="c" x="786" y="18" rx="2" ry="2"/><rect class="c c1c" x="786" y="34" rx="2" ry="2"/><rect class="c" x="786" y="50" rx="2" ry="2"/><rect class="c" x="786" y="66" rx="2" ry="2"/><rect class="c c1d" x="786" y="82" rx="2" ry="2"/><rect class="c" x="786" y="98" rx="2" ry="2"/><rect class="c" x="802" y="2" rx="2" ry="2"/><rect class="c" x="802" y="18" rx="2" ry="2"/><rect class="c" x="802" y="34" rx="2" ry="2"/><rect class="c c1e" x="802" y="50" rx="2" ry="2"/><rect class="c" x="802" y="66" rx="2" ry="2"/><rect class="c" x="802" y="82" rx="2" ry="2"/><rect class="c" x="802" y="98" rx="2" ry="2"/><rect class="c" x="818" y="2" rx="2" ry="2"/><rect class="c" x="818" y="18" rx="2" ry="2"/><rect class="c" x="818" y="34" rx="2" ry="2"/><rect class="c" x="818" y="50" rx="2" ry="2"/><rect class="c" x="818" y="66" rx="2" ry="2"/><rect class="c" x="818" y="82" rx="2" ry="2"/><rect class="c" x="818" y="98" rx="2" ry="2"/><rect class="c" x="834" y="2" rx="2" ry="2"/><rect class="c" x="834" y="18" rx="2" ry="2"/><rect class="c" x="834" y="34" rx="2" ry="2"/><rect class="c" x="834" y="50" rx="2" ry="2"/><rect class="c" x="834" y="66" rx="2" ry="2"/><rect class="c" x="834" y="82" rx="2" ry="2"/><rect class="c" x="834" y="98" rx="2" ry="2"/><rect class="u u0" height="12" width="183.5" x="0.0" y="144"/><rect class="u u1" height="12" width="366.4" x="182.9" y="144"/><rect class="u u2" height="12" width="100.4" x="548.7" y="144"/><rect class="u u3" height="12" width="200.1" x="648.5" y="144"/><rect class="s s0" x="0.8" y="0.8" width="14.4" height="14.4" rx="4.5" ry="4.5"/><rect class="s s1" x="1.8" y="1.8" width="12.3" height="12.3" rx="4.1" ry="4.1"/><rect class="s s2" x="2.6" y="2.6" width="10.8" height="10.8" rx="3.6" ry="3.6"/><rect class="s s3" x="3.0" y="3.0" width="9.9" height="9.9" rx="3.3" ry="3.3"/></svg>